<?xml version="1.0" encoding="UTF-8" standalone="no"?>
<svg
   version="1.1"
   width="200"
   height="200"
   id="svg648"
   sodipodi:docname="qr-linktree.svg"
   inkscape:version="1.1.2 (0a00cf5339, 2022-02-04, custom)"
   xmlns:inkscape="http://www.inkscape.org/namespaces/inkscape"
   xmlns:sodipodi="http://sodipodi.sourceforge.net/DTD/sodipodi-0.dtd"
   xmlns="http://www.w3.org/2000/svg"
   xmlns:svg="http://www.w3.org/2000/svg">
  <defs
     id="defs652" />
  <sodipodi:namedview
     id="namedview650"
     pagecolor="#505050"
     bordercolor="#ffffff"
     borderopacity="1"
     inkscape:pageshadow="0"
     inkscape:pageopacity="0"
     inkscape:pagecheckerboard="1"
     showgrid="false"
     inkscape:zoom="3.595"
     inkscape:cx="100"
     inkscape:cy="100"
     inkscape:window-width="1920"
     inkscape:window-height="991"
     inkscape:window-x="-9"
     inkscape:window-y="-9"
     inkscape:window-maximized="1"
     inkscape:current-layer="svg648" />
  <path
     id="rect2"
     style="fill:#ffffff;shape-rendering:optimizeSpeed"
     d="M 12,12 H 187 V 187 H 12 Z"
     sodipodi:nodetypes="ccccc" />
  <rect
     shape-rendering="optimizeSpeed"
     x="12"
     y="12"
     width="7"
     height="7"
     fill="black"
     id="rect4" />
  <rect
     shape-rendering="optimizeSpeed"
     x="19"
     y="12"
     width="7"
     height="7"
     fill="black"
     id="rect6" />
  <rect
     shape-rendering="optimizeSpeed"
     x="26"
     y="12"
     width="7"
     height="7"
     fill="black"
     id="rect8" />
  <rect
     shape-rendering="optimizeSpeed"
     x="33"
     y="12"
     width="7"
     height="7"
     fill="black"
     id="rect10" />
  <rect
     shape-rendering="optimizeSpeed"
     x="40"
     y="12"
     width="7"
     height="7"
     fill="black"
     id="rect12" />
  <rect
     shape-rendering="optimizeSpeed"
     x="47"
     y="12"
     width="7"
     height="7"
     fill="black"
     id="rect14" />
  <rect
     shape-rendering="optimizeSpeed"
     x="54"
     y="12"
     width="7"
     height="7"
     fill="black"
     id="rect16" />
  <rect
     shape-rendering="optimizeSpeed"
     x="68"
     y="12"
     width="7"
     height="7"
     fill="black"
     id="rect18" />
  <rect
     shape-rendering="optimizeSpeed"
     x="89"
     y="12"
     width="7"
     height="7"
     fill="black"
     id="rect20" />
  <rect
     shape-rendering="optimizeSpeed"
     x="103"
     y="12"
     width="7"
     height="7"
     fill="black"
     id="rect22" />
  <rect
     shape-rendering="optimizeSpeed"
     x="138"
     y="12"
     width="7"
     height="7"
     fill="black"
     id="rect24" />
  <rect
     shape-rendering="optimizeSpeed"
     x="145"
     y="12"
     width="7"
     height="7"
     fill="black"
     id="rect26" />
  <rect
     shape-rendering="optimizeSpeed"
     x="152"
     y="12"
     width="7"
     height="7"
     fill="black"
     id="rect28" />
  <rect
     shape-rendering="optimizeSpeed"
     x="159"
     y="12"
     width="7"
     height="7"
     fill="black"
     id="rect30" />
  <rect
     shape-rendering="optimizeSpeed"
     x="166"
     y="12"
     width="7"
     height="7"
     fill="black"
     id="rect32" />
  <rect
     shape-rendering="optimizeSpeed"
     x="173"
     y="12"
     width="7"
     height="7"
     fill="black"
     id="rect34" />
  <rect
     shape-rendering="optimizeSpeed"
     x="180"
     y="12"
     width="7"
     height="7"
     fill="black"
     id="rect36" />
  <rect
     shape-rendering="optimizeSpeed"
     x="12"
     y="19"
     width="7"
     height="7"
     fill="black"
     id="rect38" />
  <rect
     shape-rendering="optimizeSpeed"
     x="54"
     y="19"
     width="7"
     height="7"
     fill="black"
     id="rect40" />
  <rect
     shape-rendering="optimizeSpeed"
     x="89"
     y="19"
     width="7"
     height="7"
     fill="black"
     id="rect42" />
  <rect
     shape-rendering="optimizeSpeed"
     x="96"
     y="19"
     width="7"
     height="7"
     fill="black"
     id="rect44" />
  <rect
     shape-rendering="optimizeSpeed"
     x="103"
     y="19"
     width="7"
     height="7"
     fill="black"
     id="rect46" />
  <rect
     shape-rendering="optimizeSpeed"
     x="124"
     y="19"
     width="7"
     height="7"
     fill="black"
     id="rect48" />
  <rect
     shape-rendering="optimizeSpeed"
     x="138"
     y="19"
     width="7"
     height="7"
     fill="black"
     id="rect50" />
  <rect
     shape-rendering="optimizeSpeed"
     x="180"
     y="19"
     width="7"
     height="7"
     fill="black"
     id="rect52" />
  <rect
     shape-rendering="optimizeSpeed"
     x="12"
     y="26"
     width="7"
     height="7"
     fill="black"
     id="rect54" />
  <rect
     shape-rendering="optimizeSpeed"
     x="26"
     y="26"
     width="7"
     height="7"
     fill="black"
     id="rect56" />
  <rect
     shape-rendering="optimizeSpeed"
     x="33"
     y="26"
     width="7"
     height="7"
     fill="black"
     id="rect58" />
  <rect
     shape-rendering="optimizeSpeed"
     x="40"
     y="26"
     width="7"
     height="7"
     fill="black"
     id="rect60" />
  <rect
     shape-rendering="optimizeSpeed"
     x="54"
     y="26"
     width="7"
     height="7"
     fill="black"
     id="rect62" />
  <rect
     shape-rendering="optimizeSpeed"
     x="68"
     y="26"
     width="7"
     height="7"
     fill="black"
     id="rect64" />
  <rect
     shape-rendering="optimizeSpeed"
     x="82"
     y="26"
     width="7"
     height="7"
     fill="black"
     id="rect66" />
  <rect
     shape-rendering="optimizeSpeed"
     x="89"
     y="26"
     width="7"
     height="7"
     fill="black"
     id="rect68" />
  <rect
     shape-rendering="optimizeSpeed"
     x="103"
     y="26"
     width="7"
     height="7"
     fill="black"
     id="rect70" />
  <rect
     shape-rendering="optimizeSpeed"
     x="110"
     y="26"
     width="7"
     height="7"
     fill="black"
     id="rect72" />
  <rect
     shape-rendering="optimizeSpeed"
     x="138"
     y="26"
     width="7"
     height="7"
     fill="black"
     id="rect74" />
  <rect
     shape-rendering="optimizeSpeed"
     x="152"
     y="26"
     width="7"
     height="7"
     fill="black"
     id="rect76" />
  <rect
     shape-rendering="optimizeSpeed"
     x="159"
     y="26"
     width="7"
     height="7"
     fill="black"
     id="rect78" />
  <rect
     shape-rendering="optimizeSpeed"
     x="166"
     y="26"
     width="7"
     height="7"
     fill="black"
     id="rect80" />
  <rect
     shape-rendering="optimizeSpeed"
     x="180"
     y="26"
     width="7"
     height="7"
     fill="black"
     id="rect82" />
  <rect
     shape-rendering="optimizeSpeed"
     x="12"
     y="33"
     width="7"
     height="7"
     fill="black"
     id="rect84" />
  <rect
     shape-rendering="optimizeSpeed"
     x="26"
     y="33"
     width="7"
     height="7"
     fill="black"
     id="rect86" />
  <rect
     shape-rendering="optimizeSpeed"
     x="33"
     y="33"
     width="7"
     height="7"
     fill="black"
     id="rect88" />
  <rect
     shape-rendering="optimizeSpeed"
     x="40"
     y="33"
     width="7"
     height="7"
     fill="black"
     id="rect90" />
  <rect
     shape-rendering="optimizeSpeed"
     x="54"
     y="33"
     width="7"
     height="7"
     fill="black"
     id="rect92" />
  <rect
     shape-rendering="optimizeSpeed"
     x="68"
     y="33"
     width="7"
     height="7"
     fill="black"
     id="rect94" />
  <rect
     shape-rendering="optimizeSpeed"
     x="82"
     y="33"
     width="7"
     height="7"
     fill="black"
     id="rect96" />
  <rect
     shape-rendering="optimizeSpeed"
     x="96"
     y="33"
     width="7"
     height="7"
     fill="black"
     id="rect98" />
  <rect
     shape-rendering="optimizeSpeed"
     x="103"
     y="33"
     width="7"
     height="7"
     fill="black"
     id="rect100" />
  <rect
     shape-rendering="optimizeSpeed"
     x="110"
     y="33"
     width="7"
     height="7"
     fill="black"
     id="rect102" />
  <rect
     shape-rendering="optimizeSpeed"
     x="117"
     y="33"
     width="7"
     height="7"
     fill="black"
     id="rect104" />
  <rect
     shape-rendering="optimizeSpeed"
     x="138"
     y="33"
     width="7"
     height="7"
     fill="black"
     id="rect106" />
  <rect
     shape-rendering="optimizeSpeed"
     x="152"
     y="33"
     width="7"
     height="7"
     fill="black"
     id="rect108" />
  <rect
     shape-rendering="optimizeSpeed"
     x="159"
     y="33"
     width="7"
     height="7"
     fill="black"
     id="rect110" />
  <rect
     shape-rendering="optimizeSpeed"
     x="166"
     y="33"
     width="7"
     height="7"
     fill="black"
     id="rect112" />
  <rect
     shape-rendering="optimizeSpeed"
     x="180"
     y="33"
     width="7"
     height="7"
     fill="black"
     id="rect114" />
  <rect
     shape-rendering="optimizeSpeed"
     x="12"
     y="40"
     width="7"
     height="7"
     fill="black"
     id="rect116" />
  <rect
     shape-rendering="optimizeSpeed"
     x="26"
     y="40"
     width="7"
     height="7"
     fill="black"
     id="rect118" />
  <rect
     shape-rendering="optimizeSpeed"
     x="33"
     y="40"
     width="7"
     height="7"
     fill="black"
     id="rect120" />
  <rect
     shape-rendering="optimizeSpeed"
     x="40"
     y="40"
     width="7"
     height="7"
     fill="black"
     id="rect122" />
  <rect
     shape-rendering="optimizeSpeed"
     x="54"
     y="40"
     width="7"
     height="7"
     fill="black"
     id="rect124" />
  <rect
     shape-rendering="optimizeSpeed"
     x="68"
     y="40"
     width="7"
     height="7"
     fill="black"
     id="rect126" />
  <rect
     shape-rendering="optimizeSpeed"
     x="75"
     y="40"
     width="7"
     height="7"
     fill="black"
     id="rect128" />
  <rect
     shape-rendering="optimizeSpeed"
     x="96"
     y="40"
     width="7"
     height="7"
     fill="black"
     id="rect130" />
  <rect
     shape-rendering="optimizeSpeed"
     x="117"
     y="40"
     width="7"
     height="7"
     fill="black"
     id="rect132" />
  <rect
     shape-rendering="optimizeSpeed"
     x="124"
     y="40"
     width="7"
     height="7"
     fill="black"
     id="rect134" />
  <rect
     shape-rendering="optimizeSpeed"
     x="138"
     y="40"
     width="7"
     height="7"
     fill="black"
     id="rect136" />
  <rect
     shape-rendering="optimizeSpeed"
     x="152"
     y="40"
     width="7"
     height="7"
     fill="black"
     id="rect138" />
  <rect
     shape-rendering="optimizeSpeed"
     x="159"
     y="40"
     width="7"
     height="7"
     fill="black"
     id="rect140" />
  <rect
     shape-rendering="optimizeSpeed"
     x="166"
     y="40"
     width="7"
     height="7"
     fill="black"
     id="rect142" />
  <rect
     shape-rendering="optimizeSpeed"
     x="180"
     y="40"
     width="7"
     height="7"
     fill="black"
     id="rect144" />
  <rect
     shape-rendering="optimizeSpeed"
     x="12"
     y="47"
     width="7"
     height="7"
     fill="black"
     id="rect146" />
  <rect
     shape-rendering="optimizeSpeed"
     x="54"
     y="47"
     width="7"
     height="7"
     fill="black"
     id="rect148" />
  <rect
     shape-rendering="optimizeSpeed"
     x="96"
     y="47"
     width="7"
     height="7"
     fill="black"
     id="rect150" />
  <rect
     shape-rendering="optimizeSpeed"
     x="103"
     y="47"
     width="7"
     height="7"
     fill="black"
     id="rect152" />
  <rect
     shape-rendering="optimizeSpeed"
     x="138"
     y="47"
     width="7"
     height="7"
     fill="black"
     id="rect154" />
  <rect
     shape-rendering="optimizeSpeed"
     x="180"
     y="47"
     width="7"
     height="7"
     fill="black"
     id="rect156" />
  <rect
     shape-rendering="optimizeSpeed"
     x="12"
     y="54"
     width="7"
     height="7"
     fill="black"
     id="rect158" />
  <rect
     shape-rendering="optimizeSpeed"
     x="19"
     y="54"
     width="7"
     height="7"
     fill="black"
     id="rect160" />
  <rect
     shape-rendering="optimizeSpeed"
     x="26"
     y="54"
     width="7"
     height="7"
     fill="black"
     id="rect162" />
  <rect
     shape-rendering="optimizeSpeed"
     x="33"
     y="54"
     width="7"
     height="7"
     fill="black"
     id="rect164" />
  <rect
     shape-rendering="optimizeSpeed"
     x="40"
     y="54"
     width="7"
     height="7"
     fill="black"
     id="rect166" />
  <rect
     shape-rendering="optimizeSpeed"
     x="47"
     y="54"
     width="7"
     height="7"
     fill="black"
     id="rect168" />
  <rect
     shape-rendering="optimizeSpeed"
     x="54"
     y="54"
     width="7"
     height="7"
     fill="black"
     id="rect170" />
  <rect
     shape-rendering="optimizeSpeed"
     x="68"
     y="54"
     width="7"
     height="7"
     fill="black"
     id="rect172" />
  <rect
     shape-rendering="optimizeSpeed"
     x="82"
     y="54"
     width="7"
     height="7"
     fill="black"
     id="rect174" />
  <rect
     shape-rendering="optimizeSpeed"
     x="96"
     y="54"
     width="7"
     height="7"
     fill="black"
     id="rect176" />
  <rect
     shape-rendering="optimizeSpeed"
     x="110"
     y="54"
     width="7"
     height="7"
     fill="black"
     id="rect178" />
  <rect
     shape-rendering="optimizeSpeed"
     x="124"
     y="54"
     width="7"
     height="7"
     fill="black"
     id="rect180" />
  <rect
     shape-rendering="optimizeSpeed"
     x="138"
     y="54"
     width="7"
     height="7"
     fill="black"
     id="rect182" />
  <rect
     shape-rendering="optimizeSpeed"
     x="145"
     y="54"
     width="7"
     height="7"
     fill="black"
     id="rect184" />
  <rect
     shape-rendering="optimizeSpeed"
     x="152"
     y="54"
     width="7"
     height="7"
     fill="black"
     id="rect186" />
  <rect
     shape-rendering="optimizeSpeed"
     x="159"
     y="54"
     width="7"
     height="7"
     fill="black"
     id="rect188" />
  <rect
     shape-rendering="optimizeSpeed"
     x="166"
     y="54"
     width="7"
     height="7"
     fill="black"
     id="rect190" />
  <rect
     shape-rendering="optimizeSpeed"
     x="173"
     y="54"
     width="7"
     height="7"
     fill="black"
     id="rect192" />
  <rect
     shape-rendering="optimizeSpeed"
     x="180"
     y="54"
     width="7"
     height="7"
     fill="black"
     id="rect194" />
  <rect
     shape-rendering="optimizeSpeed"
     x="89"
     y="61"
     width="7"
     height="7"
     fill="black"
     id="rect196" />
  <rect
     shape-rendering="optimizeSpeed"
     x="110"
     y="61"
     width="7"
     height="7"
     fill="black"
     id="rect198" />
  <rect
     shape-rendering="optimizeSpeed"
     x="124"
     y="61"
     width="7"
     height="7"
     fill="black"
     id="rect200" />
  <rect
     shape-rendering="optimizeSpeed"
     x="12"
     y="68"
     width="7"
     height="7"
     fill="black"
     id="rect202" />
  <rect
     shape-rendering="optimizeSpeed"
     x="19"
     y="68"
     width="7"
     height="7"
     fill="black"
     id="rect204" />
  <rect
     shape-rendering="optimizeSpeed"
     x="26"
     y="68"
     width="7"
     height="7"
     fill="black"
     id="rect206" />
  <rect
     shape-rendering="optimizeSpeed"
     x="33"
     y="68"
     width="7"
     height="7"
     fill="black"
     id="rect208" />
  <rect
     shape-rendering="optimizeSpeed"
     x="54"
     y="68"
     width="7"
     height="7"
     fill="black"
     id="rect210" />
  <rect
     shape-rendering="optimizeSpeed"
     x="68"
     y="68"
     width="7"
     height="7"
     fill="black"
     id="rect212" />
  <rect
     shape-rendering="optimizeSpeed"
     x="82"
     y="68"
     width="7"
     height="7"
     fill="black"
     id="rect214" />
  <rect
     shape-rendering="optimizeSpeed"
     x="89"
     y="68"
     width="7"
     height="7"
     fill="black"
     id="rect216" />
  <rect
     shape-rendering="optimizeSpeed"
     x="110"
     y="68"
     width="7"
     height="7"
     fill="black"
     id="rect218" />
  <rect
     shape-rendering="optimizeSpeed"
     x="124"
     y="68"
     width="7"
     height="7"
     fill="black"
     id="rect220" />
  <rect
     shape-rendering="optimizeSpeed"
     x="131"
     y="68"
     width="7"
     height="7"
     fill="black"
     id="rect222" />
  <rect
     shape-rendering="optimizeSpeed"
     x="152"
     y="68"
     width="7"
     height="7"
     fill="black"
     id="rect224" />
  <rect
     shape-rendering="optimizeSpeed"
     x="159"
     y="68"
     width="7"
     height="7"
     fill="black"
     id="rect226" />
  <rect
     shape-rendering="optimizeSpeed"
     x="166"
     y="68"
     width="7"
     height="7"
     fill="black"
     id="rect228" />
  <rect
     shape-rendering="optimizeSpeed"
     x="180"
     y="68"
     width="7"
     height="7"
     fill="black"
     id="rect230" />
  <rect
     shape-rendering="optimizeSpeed"
     x="19"
     y="75"
     width="7"
     height="7"
     fill="black"
     id="rect232" />
  <rect
     shape-rendering="optimizeSpeed"
     x="47"
     y="75"
     width="7"
     height="7"
     fill="black"
     id="rect234" />
  <rect
     shape-rendering="optimizeSpeed"
     x="89"
     y="75"
     width="7"
     height="7"
     fill="black"
     id="rect236" />
  <rect
     shape-rendering="optimizeSpeed"
     x="124"
     y="75"
     width="7"
     height="7"
     fill="black"
     id="rect238" />
  <rect
     shape-rendering="optimizeSpeed"
     x="145"
     y="75"
     width="7"
     height="7"
     fill="black"
     id="rect240" />
  <rect
     shape-rendering="optimizeSpeed"
     x="173"
     y="75"
     width="7"
     height="7"
     fill="black"
     id="rect242" />
  <rect
     shape-rendering="optimizeSpeed"
     x="12"
     y="82"
     width="7"
     height="7"
     fill="black"
     id="rect244" />
  <rect
     shape-rendering="optimizeSpeed"
     x="19"
     y="82"
     width="7"
     height="7"
     fill="black"
     id="rect246" />
  <rect
     shape-rendering="optimizeSpeed"
     x="26"
     y="82"
     width="7"
     height="7"
     fill="black"
     id="rect248" />
  <rect
     shape-rendering="optimizeSpeed"
     x="33"
     y="82"
     width="7"
     height="7"
     fill="black"
     id="rect250" />
  <rect
     shape-rendering="optimizeSpeed"
     x="40"
     y="82"
     width="7"
     height="7"
     fill="black"
     id="rect252" />
  <rect
     shape-rendering="optimizeSpeed"
     x="47"
     y="82"
     width="7"
     height="7"
     fill="black"
     id="rect254" />
  <rect
     shape-rendering="optimizeSpeed"
     x="54"
     y="82"
     width="7"
     height="7"
     fill="black"
     id="rect256" />
  <rect
     shape-rendering="optimizeSpeed"
     x="61"
     y="82"
     width="7"
     height="7"
     fill="black"
     id="rect258" />
  <rect
     shape-rendering="optimizeSpeed"
     x="75"
     y="82"
     width="7"
     height="7"
     fill="black"
     id="rect260" />
  <rect
     shape-rendering="optimizeSpeed"
     x="82"
     y="82"
     width="7"
     height="7"
     fill="black"
     id="rect262" />
  <rect
     shape-rendering="optimizeSpeed"
     x="89"
     y="82"
     width="7"
     height="7"
     fill="black"
     id="rect264" />
  <rect
     shape-rendering="optimizeSpeed"
     x="96"
     y="82"
     width="7"
     height="7"
     fill="black"
     id="rect266" />
  <rect
     shape-rendering="optimizeSpeed"
     x="110"
     y="82"
     width="7"
     height="7"
     fill="black"
     id="rect268" />
  <rect
     shape-rendering="optimizeSpeed"
     x="131"
     y="82"
     width="7"
     height="7"
     fill="black"
     id="rect270" />
  <rect
     shape-rendering="optimizeSpeed"
     x="138"
     y="82"
     width="7"
     height="7"
     fill="black"
     id="rect272" />
  <rect
     shape-rendering="optimizeSpeed"
     x="152"
     y="82"
     width="7"
     height="7"
     fill="black"
     id="rect274" />
  <rect
     shape-rendering="optimizeSpeed"
     x="19"
     y="89"
     width="7"
     height="7"
     fill="black"
     id="rect276" />
  <rect
     shape-rendering="optimizeSpeed"
     x="33"
     y="89"
     width="7"
     height="7"
     fill="black"
     id="rect278" />
  <rect
     shape-rendering="optimizeSpeed"
     x="75"
     y="89"
     width="7"
     height="7"
     fill="black"
     id="rect280" />
  <rect
     shape-rendering="optimizeSpeed"
     x="82"
     y="89"
     width="7"
     height="7"
     fill="black"
     id="rect282" />
  <rect
     shape-rendering="optimizeSpeed"
     x="96"
     y="89"
     width="7"
     height="7"
     fill="black"
     id="rect284" />
  <rect
     shape-rendering="optimizeSpeed"
     x="103"
     y="89"
     width="7"
     height="7"
     fill="black"
     id="rect286" />
  <rect
     shape-rendering="optimizeSpeed"
     x="110"
     y="89"
     width="7"
     height="7"
     fill="black"
     id="rect288" />
  <rect
     shape-rendering="optimizeSpeed"
     x="117"
     y="89"
     width="7"
     height="7"
     fill="black"
     id="rect290" />
  <rect
     shape-rendering="optimizeSpeed"
     x="131"
     y="89"
     width="7"
     height="7"
     fill="black"
     id="rect292" />
  <rect
     shape-rendering="optimizeSpeed"
     x="152"
     y="89"
     width="7"
     height="7"
     fill="black"
     id="rect294" />
  <rect
     shape-rendering="optimizeSpeed"
     x="159"
     y="89"
     width="7"
     height="7"
     fill="black"
     id="rect296" />
  <rect
     shape-rendering="optimizeSpeed"
     x="166"
     y="89"
     width="7"
     height="7"
     fill="black"
     id="rect298" />
  <rect
     shape-rendering="optimizeSpeed"
     x="26"
     y="96"
     width="7"
     height="7"
     fill="black"
     id="rect300" />
  <rect
     shape-rendering="optimizeSpeed"
     x="54"
     y="96"
     width="7"
     height="7"
     fill="black"
     id="rect302" />
  <rect
     shape-rendering="optimizeSpeed"
     x="75"
     y="96"
     width="7"
     height="7"
     fill="black"
     id="rect304" />
  <rect
     shape-rendering="optimizeSpeed"
     x="82"
     y="96"
     width="7"
     height="7"
     fill="black"
     id="rect306" />
  <rect
     shape-rendering="optimizeSpeed"
     x="89"
     y="96"
     width="7"
     height="7"
     fill="black"
     id="rect308" />
  <rect
     shape-rendering="optimizeSpeed"
     x="96"
     y="96"
     width="7"
     height="7"
     fill="black"
     id="rect310" />
  <rect
     shape-rendering="optimizeSpeed"
     x="103"
     y="96"
     width="7"
     height="7"
     fill="black"
     id="rect312" />
  <rect
     shape-rendering="optimizeSpeed"
     x="110"
     y="96"
     width="7"
     height="7"
     fill="black"
     id="rect314" />
  <rect
     shape-rendering="optimizeSpeed"
     x="131"
     y="96"
     width="7"
     height="7"
     fill="black"
     id="rect316" />
  <rect
     shape-rendering="optimizeSpeed"
     x="138"
     y="96"
     width="7"
     height="7"
     fill="black"
     id="rect318" />
  <rect
     shape-rendering="optimizeSpeed"
     x="152"
     y="96"
     width="7"
     height="7"
     fill="black"
     id="rect320" />
  <rect
     shape-rendering="optimizeSpeed"
     x="166"
     y="96"
     width="7"
     height="7"
     fill="black"
     id="rect322" />
  <rect
     shape-rendering="optimizeSpeed"
     x="173"
     y="96"
     width="7"
     height="7"
     fill="black"
     id="rect324" />
  <rect
     shape-rendering="optimizeSpeed"
     x="180"
     y="96"
     width="7"
     height="7"
     fill="black"
     id="rect326" />
  <rect
     shape-rendering="optimizeSpeed"
     x="40"
     y="103"
     width="7"
     height="7"
     fill="black"
     id="rect328" />
  <rect
     shape-rendering="optimizeSpeed"
     x="47"
     y="103"
     width="7"
     height="7"
     fill="black"
     id="rect330" />
  <rect
     shape-rendering="optimizeSpeed"
     x="68"
     y="103"
     width="7"
     height="7"
     fill="black"
     id="rect332" />
  <rect
     shape-rendering="optimizeSpeed"
     x="96"
     y="103"
     width="7"
     height="7"
     fill="black"
     id="rect334" />
  <rect
     shape-rendering="optimizeSpeed"
     x="117"
     y="103"
     width="7"
     height="7"
     fill="black"
     id="rect336" />
  <rect
     shape-rendering="optimizeSpeed"
     x="131"
     y="103"
     width="7"
     height="7"
     fill="black"
     id="rect338" />
  <rect
     shape-rendering="optimizeSpeed"
     x="138"
     y="103"
     width="7"
     height="7"
     fill="black"
     id="rect340" />
  <rect
     shape-rendering="optimizeSpeed"
     x="145"
     y="103"
     width="7"
     height="7"
     fill="black"
     id="rect342" />
  <rect
     shape-rendering="optimizeSpeed"
     x="152"
     y="103"
     width="7"
     height="7"
     fill="black"
     id="rect344" />
  <rect
     shape-rendering="optimizeSpeed"
     x="180"
     y="103"
     width="7"
     height="7"
     fill="black"
     id="rect346" />
  <rect
     shape-rendering="optimizeSpeed"
     x="19"
     y="110"
     width="7"
     height="7"
     fill="black"
     id="rect348" />
  <rect
     shape-rendering="optimizeSpeed"
     x="33"
     y="110"
     width="7"
     height="7"
     fill="black"
     id="rect350" />
  <rect
     shape-rendering="optimizeSpeed"
     x="54"
     y="110"
     width="7"
     height="7"
     fill="black"
     id="rect352" />
  <rect
     shape-rendering="optimizeSpeed"
     x="68"
     y="110"
     width="7"
     height="7"
     fill="black"
     id="rect354" />
  <rect
     shape-rendering="optimizeSpeed"
     x="82"
     y="110"
     width="7"
     height="7"
     fill="black"
     id="rect356" />
  <rect
     shape-rendering="optimizeSpeed"
     x="103"
     y="110"
     width="7"
     height="7"
     fill="black"
     id="rect358" />
  <rect
     shape-rendering="optimizeSpeed"
     x="110"
     y="110"
     width="7"
     height="7"
     fill="black"
     id="rect360" />
  <rect
     shape-rendering="optimizeSpeed"
     x="124"
     y="110"
     width="7"
     height="7"
     fill="black"
     id="rect362" />
  <rect
     shape-rendering="optimizeSpeed"
     x="131"
     y="110"
     width="7"
     height="7"
     fill="black"
     id="rect364" />
  <rect
     shape-rendering="optimizeSpeed"
     x="138"
     y="110"
     width="7"
     height="7"
     fill="black"
     id="rect366" />
  <rect
     shape-rendering="optimizeSpeed"
     x="152"
     y="110"
     width="7"
     height="7"
     fill="black"
     id="rect368" />
  <rect
     shape-rendering="optimizeSpeed"
     x="166"
     y="110"
     width="7"
     height="7"
     fill="black"
     id="rect370" />
  <rect
     shape-rendering="optimizeSpeed"
     x="173"
     y="110"
     width="7"
     height="7"
     fill="black"
     id="rect372" />
  <rect
     shape-rendering="optimizeSpeed"
     x="12"
     y="117"
     width="7"
     height="7"
     fill="black"
     id="rect374" />
  <rect
     shape-rendering="optimizeSpeed"
     x="26"
     y="117"
     width="7"
     height="7"
     fill="black"
     id="rect376" />
  <rect
     shape-rendering="optimizeSpeed"
     x="33"
     y="117"
     width="7"
     height="7"
     fill="black"
     id="rect378" />
  <rect
     shape-rendering="optimizeSpeed"
     x="40"
     y="117"
     width="7"
     height="7"
     fill="black"
     id="rect380" />
  <rect
     shape-rendering="optimizeSpeed"
     x="61"
     y="117"
     width="7"
     height="7"
     fill="black"
     id="rect382" />
  <rect
     shape-rendering="optimizeSpeed"
     x="68"
     y="117"
     width="7"
     height="7"
     fill="black"
     id="rect384" />
  <rect
     shape-rendering="optimizeSpeed"
     x="82"
     y="117"
     width="7"
     height="7"
     fill="black"
     id="rect386" />
  <rect
     shape-rendering="optimizeSpeed"
     x="89"
     y="117"
     width="7"
     height="7"
     fill="black"
     id="rect388" />
  <rect
     shape-rendering="optimizeSpeed"
     x="145"
     y="117"
     width="7"
     height="7"
     fill="black"
     id="rect390" />
  <rect
     shape-rendering="optimizeSpeed"
     x="152"
     y="117"
     width="7"
     height="7"
     fill="black"
     id="rect392" />
  <rect
     shape-rendering="optimizeSpeed"
     x="180"
     y="117"
     width="7"
     height="7"
     fill="black"
     id="rect394" />
  <rect
     shape-rendering="optimizeSpeed"
     x="40"
     y="124"
     width="7"
     height="7"
     fill="black"
     id="rect396" />
  <rect
     shape-rendering="optimizeSpeed"
     x="54"
     y="124"
     width="7"
     height="7"
     fill="black"
     id="rect398" />
  <rect
     shape-rendering="optimizeSpeed"
     x="61"
     y="124"
     width="7"
     height="7"
     fill="black"
     id="rect400" />
  <rect
     shape-rendering="optimizeSpeed"
     x="103"
     y="124"
     width="7"
     height="7"
     fill="black"
     id="rect402" />
  <rect
     shape-rendering="optimizeSpeed"
     x="124"
     y="124"
     width="7"
     height="7"
     fill="black"
     id="rect404" />
  <rect
     shape-rendering="optimizeSpeed"
     x="131"
     y="124"
     width="7"
     height="7"
     fill="black"
     id="rect406" />
  <rect
     shape-rendering="optimizeSpeed"
     x="138"
     y="124"
     width="7"
     height="7"
     fill="black"
     id="rect408" />
  <rect
     shape-rendering="optimizeSpeed"
     x="145"
     y="124"
     width="7"
     height="7"
     fill="black"
     id="rect410" />
  <rect
     shape-rendering="optimizeSpeed"
     x="152"
     y="124"
     width="7"
     height="7"
     fill="black"
     id="rect412" />
  <rect
     shape-rendering="optimizeSpeed"
     x="159"
     y="124"
     width="7"
     height="7"
     fill="black"
     id="rect414" />
  <rect
     shape-rendering="optimizeSpeed"
     x="166"
     y="124"
     width="7"
     height="7"
     fill="black"
     id="rect416" />
  <rect
     shape-rendering="optimizeSpeed"
     x="173"
     y="124"
     width="7"
     height="7"
     fill="black"
     id="rect418" />
  <rect
     shape-rendering="optimizeSpeed"
     x="180"
     y="124"
     width="7"
     height="7"
     fill="black"
     id="rect420" />
  <rect
     shape-rendering="optimizeSpeed"
     x="68"
     y="131"
     width="7"
     height="7"
     fill="black"
     id="rect422" />
  <rect
     shape-rendering="optimizeSpeed"
     x="75"
     y="131"
     width="7"
     height="7"
     fill="black"
     id="rect424" />
  <rect
     shape-rendering="optimizeSpeed"
     x="82"
     y="131"
     width="7"
     height="7"
     fill="black"
     id="rect426" />
  <rect
     shape-rendering="optimizeSpeed"
     x="89"
     y="131"
     width="7"
     height="7"
     fill="black"
     id="rect428" />
  <rect
     shape-rendering="optimizeSpeed"
     x="103"
     y="131"
     width="7"
     height="7"
     fill="black"
     id="rect430" />
  <rect
     shape-rendering="optimizeSpeed"
     x="110"
     y="131"
     width="7"
     height="7"
     fill="black"
     id="rect432" />
  <rect
     shape-rendering="optimizeSpeed"
     x="117"
     y="131"
     width="7"
     height="7"
     fill="black"
     id="rect434" />
  <rect
     shape-rendering="optimizeSpeed"
     x="124"
     y="131"
     width="7"
     height="7"
     fill="black"
     id="rect436" />
  <rect
     shape-rendering="optimizeSpeed"
     x="152"
     y="131"
     width="7"
     height="7"
     fill="black"
     id="rect438" />
  <rect
     shape-rendering="optimizeSpeed"
     x="166"
     y="131"
     width="7"
     height="7"
     fill="black"
     id="rect440" />
  <rect
     shape-rendering="optimizeSpeed"
     x="180"
     y="131"
     width="7"
     height="7"
     fill="black"
     id="rect442" />
  <rect
     shape-rendering="optimizeSpeed"
     x="12"
     y="138"
     width="7"
     height="7"
     fill="black"
     id="rect444" />
  <rect
     shape-rendering="optimizeSpeed"
     x="19"
     y="138"
     width="7"
     height="7"
     fill="black"
     id="rect446" />
  <rect
     shape-rendering="optimizeSpeed"
     x="26"
     y="138"
     width="7"
     height="7"
     fill="black"
     id="rect448" />
  <rect
     shape-rendering="optimizeSpeed"
     x="33"
     y="138"
     width="7"
     height="7"
     fill="black"
     id="rect450" />
  <rect
     shape-rendering="optimizeSpeed"
     x="40"
     y="138"
     width="7"
     height="7"
     fill="black"
     id="rect452" />
  <rect
     shape-rendering="optimizeSpeed"
     x="47"
     y="138"
     width="7"
     height="7"
     fill="black"
     id="rect454" />
  <rect
     shape-rendering="optimizeSpeed"
     x="54"
     y="138"
     width="7"
     height="7"
     fill="black"
     id="rect456" />
  <rect
     shape-rendering="optimizeSpeed"
     x="75"
     y="138"
     width="7"
     height="7"
     fill="black"
     id="rect458" />
  <rect
     shape-rendering="optimizeSpeed"
     x="82"
     y="138"
     width="7"
     height="7"
     fill="black"
     id="rect460" />
  <rect
     shape-rendering="optimizeSpeed"
     x="103"
     y="138"
     width="7"
     height="7"
     fill="black"
     id="rect462" />
  <rect
     shape-rendering="optimizeSpeed"
     x="124"
     y="138"
     width="7"
     height="7"
     fill="black"
     id="rect464" />
  <rect
     shape-rendering="optimizeSpeed"
     x="138"
     y="138"
     width="7"
     height="7"
     fill="black"
     id="rect466" />
  <rect
     shape-rendering="optimizeSpeed"
     x="152"
     y="138"
     width="7"
     height="7"
     fill="black"
     id="rect468" />
  <rect
     shape-rendering="optimizeSpeed"
     x="166"
     y="138"
     width="7"
     height="7"
     fill="black"
     id="rect470" />
  <rect
     shape-rendering="optimizeSpeed"
     x="173"
     y="138"
     width="7"
     height="7"
     fill="black"
     id="rect472" />
  <rect
     shape-rendering="optimizeSpeed"
     x="180"
     y="138"
     width="7"
     height="7"
     fill="black"
     id="rect474" />
  <rect
     shape-rendering="optimizeSpeed"
     x="12"
     y="145"
     width="7"
     height="7"
     fill="black"
     id="rect476" />
  <rect
     shape-rendering="optimizeSpeed"
     x="54"
     y="145"
     width="7"
     height="7"
     fill="black"
     id="rect478" />
  <rect
     shape-rendering="optimizeSpeed"
     x="82"
     y="145"
     width="7"
     height="7"
     fill="black"
     id="rect480" />
  <rect
     shape-rendering="optimizeSpeed"
     x="110"
     y="145"
     width="7"
     height="7"
     fill="black"
     id="rect482" />
  <rect
     shape-rendering="optimizeSpeed"
     x="117"
     y="145"
     width="7"
     height="7"
     fill="black"
     id="rect484" />
  <rect
     shape-rendering="optimizeSpeed"
     x="124"
     y="145"
     width="7"
     height="7"
     fill="black"
     id="rect486" />
  <rect
     shape-rendering="optimizeSpeed"
     x="152"
     y="145"
     width="7"
     height="7"
     fill="black"
     id="rect488" />
  <rect
     shape-rendering="optimizeSpeed"
     x="180"
     y="145"
     width="7"
     height="7"
     fill="black"
     id="rect490" />
  <rect
     shape-rendering="optimizeSpeed"
     x="12"
     y="152"
     width="7"
     height="7"
     fill="black"
     id="rect492" />
  <rect
     shape-rendering="optimizeSpeed"
     x="26"
     y="152"
     width="7"
     height="7"
     fill="black"
     id="rect494" />
  <rect
     shape-rendering="optimizeSpeed"
     x="33"
     y="152"
     width="7"
     height="7"
     fill="black"
     id="rect496" />
  <rect
     shape-rendering="optimizeSpeed"
     x="40"
     y="152"
     width="7"
     height="7"
     fill="black"
     id="rect498" />
  <rect
     shape-rendering="optimizeSpeed"
     x="54"
     y="152"
     width="7"
     height="7"
     fill="black"
     id="rect500" />
  <rect
     shape-rendering="optimizeSpeed"
     x="89"
     y="152"
     width="7"
     height="7"
     fill="black"
     id="rect502" />
  <rect
     shape-rendering="optimizeSpeed"
     x="110"
     y="152"
     width="7"
     height="7"
     fill="black"
     id="rect504" />
  <rect
     shape-rendering="optimizeSpeed"
     x="124"
     y="152"
     width="7"
     height="7"
     fill="black"
     id="rect506" />
  <rect
     shape-rendering="optimizeSpeed"
     x="131"
     y="152"
     width="7"
     height="7"
     fill="black"
     id="rect508" />
  <rect
     shape-rendering="optimizeSpeed"
     x="138"
     y="152"
     width="7"
     height="7"
     fill="black"
     id="rect510" />
  <rect
     shape-rendering="optimizeSpeed"
     x="145"
     y="152"
     width="7"
     height="7"
     fill="black"
     id="rect512" />
  <rect
     shape-rendering="optimizeSpeed"
     x="152"
     y="152"
     width="7"
     height="7"
     fill="black"
     id="rect514" />
  <rect
     shape-rendering="optimizeSpeed"
     x="159"
     y="152"
     width="7"
     height="7"
     fill="black"
     id="rect516" />
  <rect
     shape-rendering="optimizeSpeed"
     x="173"
     y="152"
     width="7"
     height="7"
     fill="black"
     id="rect518" />
  <rect
     shape-rendering="optimizeSpeed"
     x="180"
     y="152"
     width="7"
     height="7"
     fill="black"
     id="rect520" />
  <rect
     shape-rendering="optimizeSpeed"
     x="12"
     y="159"
     width="7"
     height="7"
     fill="black"
     id="rect522" />
  <rect
     shape-rendering="optimizeSpeed"
     x="26"
     y="159"
     width="7"
     height="7"
     fill="black"
     id="rect524" />
  <rect
     shape-rendering="optimizeSpeed"
     x="33"
     y="159"
     width="7"
     height="7"
     fill="black"
     id="rect526" />
  <rect
     shape-rendering="optimizeSpeed"
     x="40"
     y="159"
     width="7"
     height="7"
     fill="black"
     id="rect528" />
  <rect
     shape-rendering="optimizeSpeed"
     x="54"
     y="159"
     width="7"
     height="7"
     fill="black"
     id="rect530" />
  <rect
     shape-rendering="optimizeSpeed"
     x="68"
     y="159"
     width="7"
     height="7"
     fill="black"
     id="rect532" />
  <rect
     shape-rendering="optimizeSpeed"
     x="82"
     y="159"
     width="7"
     height="7"
     fill="black"
     id="rect534" />
  <rect
     shape-rendering="optimizeSpeed"
     x="89"
     y="159"
     width="7"
     height="7"
     fill="black"
     id="rect536" />
  <rect
     shape-rendering="optimizeSpeed"
     x="103"
     y="159"
     width="7"
     height="7"
     fill="black"
     id="rect538" />
  <rect
     shape-rendering="optimizeSpeed"
     x="117"
     y="159"
     width="7"
     height="7"
     fill="black"
     id="rect540" />
  <rect
     shape-rendering="optimizeSpeed"
     x="131"
     y="159"
     width="7"
     height="7"
     fill="black"
     id="rect542" />
  <rect
     shape-rendering="optimizeSpeed"
     x="138"
     y="159"
     width="7"
     height="7"
     fill="black"
     id="rect544" />
  <rect
     shape-rendering="optimizeSpeed"
     x="152"
     y="159"
     width="7"
     height="7"
     fill="black"
     id="rect546" />
  <rect
     shape-rendering="optimizeSpeed"
     x="159"
     y="159"
     width="7"
     height="7"
     fill="black"
     id="rect548" />
  <rect
     shape-rendering="optimizeSpeed"
     x="166"
     y="159"
     width="7"
     height="7"
     fill="black"
     id="rect550" />
  <rect
     shape-rendering="optimizeSpeed"
     x="173"
     y="159"
     width="7"
     height="7"
     fill="black"
     id="rect552" />
  <rect
     shape-rendering="optimizeSpeed"
     x="180"
     y="159"
     width="7"
     height="7"
     fill="black"
     id="rect554" />
  <rect
     shape-rendering="optimizeSpeed"
     x="12"
     y="166"
     width="7"
     height="7"
     fill="black"
     id="rect556" />
  <rect
     shape-rendering="optimizeSpeed"
     x="26"
     y="166"
     width="7"
     height="7"
     fill="black"
     id="rect558" />
  <rect
     shape-rendering="optimizeSpeed"
     x="33"
     y="166"
     width="7"
     height="7"
     fill="black"
     id="rect560" />
  <rect
     shape-rendering="optimizeSpeed"
     x="40"
     y="166"
     width="7"
     height="7"
     fill="black"
     id="rect562" />
  <rect
     shape-rendering="optimizeSpeed"
     x="54"
     y="166"
     width="7"
     height="7"
     fill="black"
     id="rect564" />
  <rect
     shape-rendering="optimizeSpeed"
     x="68"
     y="166"
     width="7"
     height="7"
     fill="black"
     id="rect566" />
  <rect
     shape-rendering="optimizeSpeed"
     x="89"
     y="166"
     width="7"
     height="7"
     fill="black"
     id="rect568" />
  <rect
     shape-rendering="optimizeSpeed"
     x="96"
     y="166"
     width="7"
     height="7"
     fill="black"
     id="rect570" />
  <rect
     shape-rendering="optimizeSpeed"
     x="110"
     y="166"
     width="7"
     height="7"
     fill="black"
     id="rect572" />
  <rect
     shape-rendering="optimizeSpeed"
     x="117"
     y="166"
     width="7"
     height="7"
     fill="black"
     id="rect574" />
  <rect
     shape-rendering="optimizeSpeed"
     x="131"
     y="166"
     width="7"
     height="7"
     fill="black"
     id="rect576" />
  <rect
     shape-rendering="optimizeSpeed"
     x="138"
     y="166"
     width="7"
     height="7"
     fill="black"
     id="rect578" />
  <rect
     shape-rendering="optimizeSpeed"
     x="152"
     y="166"
     width="7"
     height="7"
     fill="black"
     id="rect580" />
  <rect
     shape-rendering="optimizeSpeed"
     x="166"
     y="166"
     width="7"
     height="7"
     fill="black"
     id="rect582" />
  <rect
     shape-rendering="optimizeSpeed"
     x="173"
     y="166"
     width="7"
     height="7"
     fill="black"
     id="rect584" />
  <rect
     shape-rendering="optimizeSpeed"
     x="12"
     y="173"
     width="7"
     height="7"
     fill="black"
     id="rect586" />
  <rect
     shape-rendering="optimizeSpeed"
     x="54"
     y="173"
     width="7"
     height="7"
     fill="black"
     id="rect588" />
  <rect
     shape-rendering="optimizeSpeed"
     x="68"
     y="173"
     width="7"
     height="7"
     fill="black"
     id="rect590" />
  <rect
     shape-rendering="optimizeSpeed"
     x="82"
     y="173"
     width="7"
     height="7"
     fill="black"
     id="rect592" />
  <rect
     shape-rendering="optimizeSpeed"
     x="89"
     y="173"
     width="7"
     height="7"
     fill="black"
     id="rect594" />
  <rect
     shape-rendering="optimizeSpeed"
     x="103"
     y="173"
     width="7"
     height="7"
     fill="black"
     id="rect596" />
  <rect
     shape-rendering="optimizeSpeed"
     x="110"
     y="173"
     width="7"
     height="7"
     fill="black"
     id="rect598" />
  <rect
     shape-rendering="optimizeSpeed"
     x="117"
     y="173"
     width="7"
     height="7"
     fill="black"
     id="rect600" />
  <rect
     shape-rendering="optimizeSpeed"
     x="138"
     y="173"
     width="7"
     height="7"
     fill="black"
     id="rect602" />
  <rect
     shape-rendering="optimizeSpeed"
     x="152"
     y="173"
     width="7"
     height="7"
     fill="black"
     id="rect604" />
  <rect
     shape-rendering="optimizeSpeed"
     x="166"
     y="173"
     width="7"
     height="7"
     fill="black"
     id="rect606" />
  <rect
     shape-rendering="optimizeSpeed"
     x="12"
     y="180"
     width="7"
     height="7"
     fill="black"
     id="rect608" />
  <rect
     shape-rendering="optimizeSpeed"
     x="19"
     y="180"
     width="7"
     height="7"
     fill="black"
     id="rect610" />
  <rect
     shape-rendering="optimizeSpeed"
     x="26"
     y="180"
     width="7"
     height="7"
     fill="black"
     id="rect612" />
  <rect
     shape-rendering="optimizeSpeed"
     x="33"
     y="180"
     width="7"
     height="7"
     fill="black"
     id="rect614" />
  <rect
     shape-rendering="optimizeSpeed"
     x="40"
     y="180"
     width="7"
     height="7"
     fill="black"
     id="rect616" />
  <rect
     shape-rendering="optimizeSpeed"
     x="47"
     y="180"
     width="7"
     height="7"
     fill="black"
     id="rect618" />
  <rect
     shape-rendering="optimizeSpeed"
     x="54"
     y="180"
     width="7"
     height="7"
     fill="black"
     id="rect620" />
  <rect
     shape-rendering="optimizeSpeed"
     x="68"
     y="180"
     width="7"
     height="7"
     fill="black"
     id="rect622" />
  <rect
     shape-rendering="optimizeSpeed"
     x="75"
     y="180"
     width="7"
     height="7"
     fill="black"
     id="rect624" />
  <rect
     shape-rendering="optimizeSpeed"
     x="82"
     y="180"
     width="7"
     height="7"
     fill="black"
     id="rect626" />
  <rect
     shape-rendering="optimizeSpeed"
     x="96"
     y="180"
     width="7"
     height="7"
     fill="black"
     id="rect628" />
  <rect
     shape-rendering="optimizeSpeed"
     x="103"
     y="180"
     width="7"
     height="7"
     fill="black"
     id="rect630" />
  <rect
     shape-rendering="optimizeSpeed"
     x="110"
     y="180"
     width="7"
     height="7"
     fill="black"
     id="rect632" />
  <rect
     shape-rendering="optimizeSpeed"
     x="131"
     y="180"
     width="7"
     height="7"
     fill="black"
     id="rect634" />
  <rect
     shape-rendering="optimizeSpeed"
     x="145"
     y="180"
     width="7"
     height="7"
     fill="black"
     id="rect636" />
  <rect
     shape-rendering="optimizeSpeed"
     x="152"
     y="180"
     width="7"
     height="7"
     fill="black"
     id="rect638" />
  <rect
     shape-rendering="optimizeSpeed"
     x="159"
     y="180"
     width="7"
     height="7"
     fill="black"
     id="rect640" />
  <rect
     shape-rendering="optimizeSpeed"
     x="166"
     y="180"
     width="7"
     height="7"
     fill="black"
     id="rect642" />
  <rect
     shape-rendering="optimizeSpeed"
     x="173"
     y="180"
     width="7"
     height="7"
     fill="black"
     id="rect644" />
  <rect
     shape-rendering="optimizeSpeed"
     x="180"
     y="180"
     width="7"
     height="7"
     fill="black"
     id="rect646" />
</svg>
