<?xml version="1.0" encoding="UTF-8" standalone="no"?>
<svg
   version="1.1"
   width="2.4985721cm"
   height="2.4985721cm"
   id="svg648"
   sodipodi:docname="qr-linktree-no-border.svg"
   inkscape:version="1.1.2 (0a00cf5339, 2022-02-04, custom)"
   viewBox="0 0 94.434221 94.488186"
   inkscape:export-filename="C:\Users\patri\GitHub\resume\resume\images\qr-linktree-no-border.png"
   inkscape:export-xdpi="599.78259"
   inkscape:export-ydpi="599.78259"
   xmlns:inkscape="http://www.inkscape.org/namespaces/inkscape"
   xmlns:sodipodi="http://sodipodi.sourceforge.net/DTD/sodipodi-0.dtd"
   xmlns="http://www.w3.org/2000/svg"
   xmlns:svg="http://www.w3.org/2000/svg">
  <defs
     id="defs652" />
  <sodipodi:namedview
     id="namedview650"
     pagecolor="#505050"
     bordercolor="#ffffff"
     borderopacity="1"
     inkscape:pageshadow="0"
     inkscape:pageopacity="0"
     inkscape:pagecheckerboard="1"
     showgrid="false"
     inkscape:zoom="3.595"
     inkscape:cx="88.038943"
     inkscape:cy="88.038943"
     inkscape:window-width="1920"
     inkscape:window-height="991"
     inkscape:window-x="-9"
     inkscape:window-y="-9"
     inkscape:window-maximized="1"
     inkscape:current-layer="svg648"
     fit-margin-top="0"
     fit-margin-left="0"
     fit-margin-right="0"
     fit-margin-bottom="0"
     units="cm"
     width="4.63021cm"
     viewbox-height="175.10001"
     inkscape:document-units="cm" />
  <path
     id="rect2"
     style="fill:#ffffff;fill-opacity:0.69999999;stroke-width:0.539932;shape-rendering:optimizeSpeed"
     d="M -0.05000554,0 H 94.438183 V 94.488189 H -0.05000554 Z"
     sodipodi:nodetypes="ccccc" />
  <path
     id="rect4"
     d="m -0.05000554,0 v 3.7795275 3.7795276 3.7795279 3.779527 3.779528 3.779527 3.779528 h 3.77952754 3.7795276 3.7795274 3.779527 3.779528 3.779527 3.779528 V 22.677165 18.897638 15.11811 11.338583 7.5590551 3.7795275 0 H 22.627159 18.847632 15.068104 11.288577 7.5090496 3.729522 Z M 30.186215,0 v 3.7795275 h 3.779527 V 0 Z m 11.338583,0 v 3.7795275 3.7795276 h -3.779529 v 3.7795279 3.779527 h 3.779529 v -3.779527 h 3.779527 V 7.5590551 h 3.779527 v 3.7795279 h -3.779527 v 3.779527 3.779528 3.779527 3.779528 h 3.779527 v -3.779528 h 3.779527 V 18.897638 H 49.083852 V 15.11811 h 3.779527 3.779529 v 3.779528 h 3.779527 3.779527 V 15.11811 H 60.422435 V 11.338583 H 56.642908 V 7.5590551 H 52.863379 V 3.7795275 0 H 49.083852 V 3.7795275 H 45.304325 V 0 Z m 11.338581,22.677165 v 3.779528 3.779528 3.779527 h 3.779529 v -3.779527 -3.779528 -3.779528 z m -7.559054,3.779528 h -3.779527 v 3.779528 h -3.779529 v 3.779527 h 3.779529 v 3.779527 h -3.779529 -3.779527 v 3.779529 3.779527 3.779527 h 3.779527 3.779529 3.779527 v 3.779527 h 3.779527 v -3.779527 h 3.779527 3.779529 v -3.779527 h 3.779527 v -3.779527 h -3.779527 v -3.779529 h -3.779529 v 3.779529 h -3.779527 v -3.779529 h -3.779527 v -3.779527 -3.779527 z m 11.338583,22.677165 v 3.779527 h 3.779527 v -3.779527 z m 3.779527,3.779527 v 3.779529 h 3.779527 3.779528 3.779528 v -3.779529 h 3.779527 v 3.779529 h -3.779527 v 3.779527 H 67.98149 64.201962 60.422435 v 3.779527 h -3.779527 -3.779529 v -3.779527 h -3.779527 v 3.779527 3.779528 3.779528 h 3.779527 v -3.779528 h 3.779529 3.779527 v 3.779528 h -3.779527 -3.779529 v 3.779527 3.779528 h 3.779529 v -3.779528 h 3.779527 v 3.779528 h 3.779527 v 3.779527 3.779528 h 3.779528 v 3.779528 h 3.779528 v -3.779528 -3.779528 -3.779527 h 3.779527 v 3.779527 3.779528 3.779528 h -3.779527 v 3.779527 h 3.779527 3.779528 3.779527 3.779528 3.779528 3.779527 v -3.779527 h -3.779527 -3.779528 v -3.779528 h 3.779528 v -3.779528 h 3.779527 v -3.779527 -3.779528 -3.779527 -3.779528 -3.779528 -3.779527 -3.779527 h -3.779527 v 3.779527 H 86.879128 83.0996 79.320073 V 56.692914 52.913385 49.133858 45.354331 H 83.0996 v 3.779527 h 3.779528 3.779528 v 3.779527 h 3.779527 V 49.133858 45.354331 H 90.658656 86.879128 V 41.574804 H 83.0996 79.320073 v -3.779529 h -3.779528 v 3.779529 3.779527 3.779527 H 71.761018 V 45.354331 H 67.98149 v -3.779527 h 3.779528 V 37.795275 H 67.98149 64.201962 v 3.779529 3.779527 3.779527 3.779527 z m 3.779527,-15.11811 v -3.779527 h 3.779528 v -3.779527 h -3.779528 v -3.779528 -3.779528 h -3.779527 v 3.779528 3.779528 3.779527 3.779527 z m 7.559056,0 h 3.779527 v -3.779527 h -3.779527 z m 3.779527,-3.779527 h 3.779528 3.779527 3.779528 V 30.236221 H 83.0996 79.320073 75.540545 Z m 11.338583,0 v 3.779527 h 3.779528 v -3.779527 z m 3.779528,0 h 3.779527 v -3.779527 h -3.779527 z m 0,18.897637 H 86.879128 83.0996 v 3.779529 h 3.779528 3.779528 z M 67.98149,90.708662 h -3.779528 v 3.779527 H 67.98149 Z M 60.422435,79.370079 h -3.779527 v 3.779527 h -3.779529 v 3.779528 h -3.779527 v 3.779528 h -3.779527 v 3.779527 h 3.779527 3.779527 3.779529 v -3.779527 h 3.779527 v -3.779528 -3.779528 z m -15.11811,11.338583 v -3.779528 h 3.779527 v -3.779528 h -3.779527 v -3.779527 -3.779528 h -3.779527 v 3.779528 h -3.779529 v 3.779527 h 3.779529 v 3.779528 h -3.779529 v 3.779528 h -3.779527 v -3.779528 -3.779528 -3.779527 h -3.779527 v 3.779527 3.779528 3.779528 3.779527 h 3.779527 3.779527 3.779529 V 90.708662 Z M 41.524798,75.590551 v -3.779527 -3.779528 h 3.779527 v -3.779528 h -3.779527 -3.779529 -3.779527 -3.779527 v 3.779528 h 3.779527 v 3.779528 h 3.779527 v 3.779527 z M 30.186215,64.251968 v -3.779527 h 3.779527 v -3.779527 -3.779529 -3.779527 h -3.779527 v 3.779527 3.779529 h -3.779528 v 3.779527 h -3.779528 v 3.779527 h 3.779528 z m -3.779528,-7.559054 v -3.779529 h -3.779528 v 3.779529 z m -3.779528,-3.779529 v -3.779527 h -3.779527 -3.779528 v 3.779527 h 3.779528 z m -7.559055,0 h -3.779527 v 3.779529 H 7.5090496 v 3.779527 h 3.7795274 3.779527 v 3.779527 h 3.779528 V 60.472441 56.692914 H 15.068104 Z M 7.5090496,56.692914 V 52.913385 H 3.729522 v 3.779529 z m -3.7795276,0 h -3.77952754 v 3.779527 H 3.729522 Z m 18.897637,-7.559056 h 3.779528 v -3.779527 h -3.779528 z m 26.456693,34.015748 h 3.779527 v -3.779527 h -3.779527 z m 7.559056,-30.236221 h -3.779529 -3.779527 v 3.779529 h 3.779527 3.779529 z M 41.524798,26.456693 v -3.779528 h -3.779529 v 3.779528 z M 37.745269,15.11811 H 33.965742 V 11.338583 7.5590551 h -3.779527 v 3.7795279 3.779527 3.779528 h 3.779527 3.779527 z M 67.98149,0 v 3.7795275 3.7795276 3.7795279 3.779527 3.779528 3.779527 3.779528 h 3.779528 3.779527 3.779528 3.779527 3.779528 3.779528 3.779527 V 22.677165 18.897638 15.11811 11.338583 7.5590551 3.7795275 0 H 90.658656 86.879128 83.0996 79.320073 75.540545 71.761018 Z M 3.729522,3.7795275 h 3.7795276 3.7795274 3.779527 3.779528 3.779527 v 3.7795276 3.7795279 3.779527 3.779528 3.779527 H 18.847632 15.068104 11.288577 7.5090496 3.729522 V 18.897638 15.11811 11.338583 7.5590551 Z m 56.692913,0 v 3.7795276 h 3.779527 V 3.7795275 Z m 11.338583,0 h 3.779527 3.779528 3.779527 3.779528 3.779528 v 3.7795276 3.7795279 3.779527 3.779528 3.779527 H 86.879128 83.0996 79.320073 75.540545 71.761018 V 18.897638 15.11811 11.338583 7.5590551 Z M 7.5090496,7.5590551 v 3.7795279 3.779527 3.779528 h 3.7795274 3.779527 3.779528 V 15.11811 11.338583 7.5590551 h -3.779528 -3.779527 z m 68.0314954,0 v 3.7795279 3.779527 3.779528 h 3.779528 3.779527 3.779528 V 15.11811 11.338583 7.5590551 H 83.0996 79.320073 Z M 30.186215,22.677165 v 3.779528 h 3.779527 v -3.779528 z m -30.23622054,7.559056 v 3.779527 H 3.729522 v 3.779527 h -3.77952754 v 3.779529 H 3.729522 v 3.779527 h 3.7795276 v -3.779527 h 3.7795274 v 3.779527 h 3.779527 v -3.779527 h 3.779528 3.779527 3.779528 3.779528 v -3.779529 h -3.779528 -3.779528 v -3.779527 h -3.779527 v 3.779527 H 15.068104 11.288577 7.5090496 v -3.779527 h 3.7795274 3.779527 V 30.236221 H 11.288577 7.5090496 3.729522 Z M 22.627159,34.015748 h 3.779528 V 30.236221 H 22.627159 Z M 11.288577,45.354331 H 7.5090496 v 3.779527 h 3.7795274 z m 18.897638,-15.11811 v 3.779527 h 3.779527 v -3.779527 z m 11.338583,11.338583 h 3.779527 v 3.779527 h -3.779527 z m -3.779529,11.338581 v 3.779529 3.779527 h 3.779529 3.779527 v -3.779527 h -3.779527 v -3.779529 z m 26.456693,11.338583 h 3.779528 3.779528 3.779527 v 3.779528 3.779528 3.779527 H 71.761018 67.98149 64.201962 v -3.779527 -3.779528 z m 15.118111,0 H 83.0996 v 3.779528 3.779528 h 3.779528 3.779528 v 3.779527 h -3.779528 v 3.779528 H 83.0996 v -3.779528 h -3.779527 v -3.779527 -3.779528 z m 7.559055,0 h 3.779528 v 3.779528 h -3.779528 z m -86.92913354,3.779528 v 3.779528 3.779527 3.779528 3.779527 3.779528 3.779528 3.779527 h 3.77952754 3.7795276 3.7795274 3.779527 3.779528 3.779527 3.779528 V 90.708662 86.929134 83.149606 79.370079 75.590551 71.811024 68.031496 H 22.627159 18.847632 15.068104 11.288577 7.5090496 3.729522 Z m 68.03149554,0 v 3.779528 h 3.779528 V 68.031496 Z M 3.729522,71.811024 h 3.7795276 3.7795274 3.779527 3.779528 3.779527 v 3.779527 3.779528 3.779527 3.779528 3.779528 H 18.847632 15.068104 11.288577 7.5090496 3.729522 v -3.779528 -3.779528 -3.779527 -3.779528 z m 3.7795276,3.779527 v 3.779528 3.779527 3.779528 h 3.7795274 3.779527 3.779528 V 83.149606 79.370079 75.590551 H 15.068104 11.288577 Z M 79.320073,83.149606 H 83.0996 v 3.779528 3.779528 h -3.779527 v -3.779528 z"
     style="stroke-width:0.539932" />
</svg>
