<?xml version="1.0" encoding="UTF-8" standalone="no"?>
<svg
   version="1.1"
   width="46.302082mm"
   height="46.302082mm"
   id="svg648"
   sodipodi:docname="qr-linktree.svg"
   inkscape:version="1.1.2 (0a00cf5339, 2022-02-04, custom)"
   viewBox="0 0 175 175"
   xmlns:inkscape="http://www.inkscape.org/namespaces/inkscape"
   xmlns:sodipodi="http://sodipodi.sourceforge.net/DTD/sodipodi-0.dtd"
   xmlns="http://www.w3.org/2000/svg"
   xmlns:svg="http://www.w3.org/2000/svg">
  <defs
     id="defs652" />
  <sodipodi:namedview
     id="namedview650"
     pagecolor="#505050"
     bordercolor="#ffffff"
     borderopacity="1"
     inkscape:pageshadow="0"
     inkscape:pageopacity="0"
     inkscape:pagecheckerboard="1"
     showgrid="false"
     inkscape:zoom="3.595"
     inkscape:cx="88.038943"
     inkscape:cy="88.038943"
     inkscape:window-width="1920"
     inkscape:window-height="991"
     inkscape:window-x="-9"
     inkscape:window-y="-9"
     inkscape:window-maximized="1"
     inkscape:current-layer="svg648"
     units="mm"
     fit-margin-top="0"
     fit-margin-left="0"
     fit-margin-right="0"
     fit-margin-bottom="0"
     width="28mm"
     inkscape:document-units="mm" />
  <path
     id="rect2"
     style="fill:#ffffff;shape-rendering:optimizeSpeed"
     d="M 0,0 H 175 V 175 H 0 Z"
     sodipodi:nodetypes="ccccc" />
  <rect
     shape-rendering="optimizeSpeed"
     x="0"
     y="0"
     width="7"
     height="7"
     fill="#000000"
     id="rect4" />
  <rect
     shape-rendering="optimizeSpeed"
     x="7"
     y="0"
     width="7"
     height="7"
     fill="#000000"
     id="rect6" />
  <rect
     shape-rendering="optimizeSpeed"
     x="14"
     y="0"
     width="7"
     height="7"
     fill="#000000"
     id="rect8" />
  <rect
     shape-rendering="optimizeSpeed"
     x="21"
     y="0"
     width="7"
     height="7"
     fill="#000000"
     id="rect10" />
  <rect
     shape-rendering="optimizeSpeed"
     x="28"
     y="0"
     width="7"
     height="7"
     fill="#000000"
     id="rect12" />
  <rect
     shape-rendering="optimizeSpeed"
     x="35"
     y="0"
     width="7"
     height="7"
     fill="#000000"
     id="rect14" />
  <rect
     shape-rendering="optimizeSpeed"
     x="42"
     y="0"
     width="7"
     height="7"
     fill="#000000"
     id="rect16" />
  <rect
     shape-rendering="optimizeSpeed"
     x="56"
     y="0"
     width="7"
     height="7"
     fill="#000000"
     id="rect18" />
  <rect
     shape-rendering="optimizeSpeed"
     x="77"
     y="0"
     width="7"
     height="7"
     fill="#000000"
     id="rect20" />
  <rect
     shape-rendering="optimizeSpeed"
     x="91"
     y="0"
     width="7"
     height="7"
     fill="#000000"
     id="rect22" />
  <rect
     shape-rendering="optimizeSpeed"
     x="126"
     y="0"
     width="7"
     height="7"
     fill="#000000"
     id="rect24" />
  <rect
     shape-rendering="optimizeSpeed"
     x="133"
     y="0"
     width="7"
     height="7"
     fill="#000000"
     id="rect26" />
  <rect
     shape-rendering="optimizeSpeed"
     x="140"
     y="0"
     width="7"
     height="7"
     fill="#000000"
     id="rect28" />
  <rect
     shape-rendering="optimizeSpeed"
     x="147"
     y="0"
     width="7"
     height="7"
     fill="#000000"
     id="rect30" />
  <rect
     shape-rendering="optimizeSpeed"
     x="154"
     y="0"
     width="7"
     height="7"
     fill="#000000"
     id="rect32" />
  <rect
     shape-rendering="optimizeSpeed"
     x="161"
     y="0"
     width="7"
     height="7"
     fill="#000000"
     id="rect34" />
  <rect
     shape-rendering="optimizeSpeed"
     x="168"
     y="0"
     width="7"
     height="7"
     fill="#000000"
     id="rect36" />
  <rect
     shape-rendering="optimizeSpeed"
     x="0"
     y="7"
     width="7"
     height="7"
     fill="#000000"
     id="rect38" />
  <rect
     shape-rendering="optimizeSpeed"
     x="42"
     y="7"
     width="7"
     height="7"
     fill="#000000"
     id="rect40" />
  <rect
     shape-rendering="optimizeSpeed"
     x="77"
     y="7"
     width="7"
     height="7"
     fill="#000000"
     id="rect42" />
  <rect
     shape-rendering="optimizeSpeed"
     x="84"
     y="7"
     width="7"
     height="7"
     fill="#000000"
     id="rect44" />
  <rect
     shape-rendering="optimizeSpeed"
     x="91"
     y="7"
     width="7"
     height="7"
     fill="#000000"
     id="rect46" />
  <rect
     shape-rendering="optimizeSpeed"
     x="112"
     y="7"
     width="7"
     height="7"
     fill="#000000"
     id="rect48" />
  <rect
     shape-rendering="optimizeSpeed"
     x="126"
     y="7"
     width="7"
     height="7"
     fill="#000000"
     id="rect50" />
  <rect
     shape-rendering="optimizeSpeed"
     x="168"
     y="7"
     width="7"
     height="7"
     fill="#000000"
     id="rect52" />
  <rect
     shape-rendering="optimizeSpeed"
     x="0"
     y="14"
     width="7"
     height="7"
     fill="#000000"
     id="rect54" />
  <rect
     shape-rendering="optimizeSpeed"
     x="14"
     y="14"
     width="7"
     height="7"
     fill="#000000"
     id="rect56" />
  <rect
     shape-rendering="optimizeSpeed"
     x="21"
     y="14"
     width="7"
     height="7"
     fill="#000000"
     id="rect58" />
  <rect
     shape-rendering="optimizeSpeed"
     x="28"
     y="14"
     width="7"
     height="7"
     fill="#000000"
     id="rect60" />
  <rect
     shape-rendering="optimizeSpeed"
     x="42"
     y="14"
     width="7"
     height="7"
     fill="#000000"
     id="rect62" />
  <rect
     shape-rendering="optimizeSpeed"
     x="56"
     y="14"
     width="7"
     height="7"
     fill="#000000"
     id="rect64" />
  <rect
     shape-rendering="optimizeSpeed"
     x="70"
     y="14"
     width="7"
     height="7"
     fill="#000000"
     id="rect66" />
  <rect
     shape-rendering="optimizeSpeed"
     x="77"
     y="14"
     width="7"
     height="7"
     fill="#000000"
     id="rect68" />
  <rect
     shape-rendering="optimizeSpeed"
     x="91"
     y="14"
     width="7"
     height="7"
     fill="#000000"
     id="rect70" />
  <rect
     shape-rendering="optimizeSpeed"
     x="98"
     y="14"
     width="7"
     height="7"
     fill="#000000"
     id="rect72" />
  <rect
     shape-rendering="optimizeSpeed"
     x="126"
     y="14"
     width="7"
     height="7"
     fill="#000000"
     id="rect74" />
  <rect
     shape-rendering="optimizeSpeed"
     x="140"
     y="14"
     width="7"
     height="7"
     fill="#000000"
     id="rect76" />
  <rect
     shape-rendering="optimizeSpeed"
     x="147"
     y="14"
     width="7"
     height="7"
     fill="#000000"
     id="rect78" />
  <rect
     shape-rendering="optimizeSpeed"
     x="154"
     y="14"
     width="7"
     height="7"
     fill="#000000"
     id="rect80" />
  <rect
     shape-rendering="optimizeSpeed"
     x="168"
     y="14"
     width="7"
     height="7"
     fill="#000000"
     id="rect82" />
  <rect
     shape-rendering="optimizeSpeed"
     x="0"
     y="21"
     width="7"
     height="7"
     fill="#000000"
     id="rect84" />
  <rect
     shape-rendering="optimizeSpeed"
     x="14"
     y="21"
     width="7"
     height="7"
     fill="#000000"
     id="rect86" />
  <rect
     shape-rendering="optimizeSpeed"
     x="21"
     y="21"
     width="7"
     height="7"
     fill="#000000"
     id="rect88" />
  <rect
     shape-rendering="optimizeSpeed"
     x="28"
     y="21"
     width="7"
     height="7"
     fill="#000000"
     id="rect90" />
  <rect
     shape-rendering="optimizeSpeed"
     x="42"
     y="21"
     width="7"
     height="7"
     fill="#000000"
     id="rect92" />
  <rect
     shape-rendering="optimizeSpeed"
     x="56"
     y="21"
     width="7"
     height="7"
     fill="#000000"
     id="rect94" />
  <rect
     shape-rendering="optimizeSpeed"
     x="70"
     y="21"
     width="7"
     height="7"
     fill="#000000"
     id="rect96" />
  <rect
     shape-rendering="optimizeSpeed"
     x="84"
     y="21"
     width="7"
     height="7"
     fill="#000000"
     id="rect98" />
  <rect
     shape-rendering="optimizeSpeed"
     x="91"
     y="21"
     width="7"
     height="7"
     fill="#000000"
     id="rect100" />
  <rect
     shape-rendering="optimizeSpeed"
     x="98"
     y="21"
     width="7"
     height="7"
     fill="#000000"
     id="rect102" />
  <rect
     shape-rendering="optimizeSpeed"
     x="105"
     y="21"
     width="7"
     height="7"
     fill="#000000"
     id="rect104" />
  <rect
     shape-rendering="optimizeSpeed"
     x="126"
     y="21"
     width="7"
     height="7"
     fill="#000000"
     id="rect106" />
  <rect
     shape-rendering="optimizeSpeed"
     x="140"
     y="21"
     width="7"
     height="7"
     fill="#000000"
     id="rect108" />
  <rect
     shape-rendering="optimizeSpeed"
     x="147"
     y="21"
     width="7"
     height="7"
     fill="#000000"
     id="rect110" />
  <rect
     shape-rendering="optimizeSpeed"
     x="154"
     y="21"
     width="7"
     height="7"
     fill="#000000"
     id="rect112" />
  <rect
     shape-rendering="optimizeSpeed"
     x="168"
     y="21"
     width="7"
     height="7"
     fill="#000000"
     id="rect114" />
  <rect
     shape-rendering="optimizeSpeed"
     x="0"
     y="28"
     width="7"
     height="7"
     fill="#000000"
     id="rect116" />
  <rect
     shape-rendering="optimizeSpeed"
     x="14"
     y="28"
     width="7"
     height="7"
     fill="#000000"
     id="rect118" />
  <rect
     shape-rendering="optimizeSpeed"
     x="21"
     y="28"
     width="7"
     height="7"
     fill="#000000"
     id="rect120" />
  <rect
     shape-rendering="optimizeSpeed"
     x="28"
     y="28"
     width="7"
     height="7"
     fill="#000000"
     id="rect122" />
  <rect
     shape-rendering="optimizeSpeed"
     x="42"
     y="28"
     width="7"
     height="7"
     fill="#000000"
     id="rect124" />
  <rect
     shape-rendering="optimizeSpeed"
     x="56"
     y="28"
     width="7"
     height="7"
     fill="#000000"
     id="rect126" />
  <rect
     shape-rendering="optimizeSpeed"
     x="63"
     y="28"
     width="7"
     height="7"
     fill="#000000"
     id="rect128" />
  <rect
     shape-rendering="optimizeSpeed"
     x="84"
     y="28"
     width="7"
     height="7"
     fill="#000000"
     id="rect130" />
  <rect
     shape-rendering="optimizeSpeed"
     x="105"
     y="28"
     width="7"
     height="7"
     fill="#000000"
     id="rect132" />
  <rect
     shape-rendering="optimizeSpeed"
     x="112"
     y="28"
     width="7"
     height="7"
     fill="#000000"
     id="rect134" />
  <rect
     shape-rendering="optimizeSpeed"
     x="126"
     y="28"
     width="7"
     height="7"
     fill="#000000"
     id="rect136" />
  <rect
     shape-rendering="optimizeSpeed"
     x="140"
     y="28"
     width="7"
     height="7"
     fill="#000000"
     id="rect138" />
  <rect
     shape-rendering="optimizeSpeed"
     x="147"
     y="28"
     width="7"
     height="7"
     fill="#000000"
     id="rect140" />
  <rect
     shape-rendering="optimizeSpeed"
     x="154"
     y="28"
     width="7"
     height="7"
     fill="#000000"
     id="rect142" />
  <rect
     shape-rendering="optimizeSpeed"
     x="168"
     y="28"
     width="7"
     height="7"
     fill="#000000"
     id="rect144" />
  <rect
     shape-rendering="optimizeSpeed"
     x="0"
     y="35"
     width="7"
     height="7"
     fill="#000000"
     id="rect146" />
  <rect
     shape-rendering="optimizeSpeed"
     x="42"
     y="35"
     width="7"
     height="7"
     fill="#000000"
     id="rect148" />
  <rect
     shape-rendering="optimizeSpeed"
     x="84"
     y="35"
     width="7"
     height="7"
     fill="#000000"
     id="rect150" />
  <rect
     shape-rendering="optimizeSpeed"
     x="91"
     y="35"
     width="7"
     height="7"
     fill="#000000"
     id="rect152" />
  <rect
     shape-rendering="optimizeSpeed"
     x="126"
     y="35"
     width="7"
     height="7"
     fill="#000000"
     id="rect154" />
  <rect
     shape-rendering="optimizeSpeed"
     x="168"
     y="35"
     width="7"
     height="7"
     fill="#000000"
     id="rect156" />
  <rect
     shape-rendering="optimizeSpeed"
     x="0"
     y="42"
     width="7"
     height="7"
     fill="#000000"
     id="rect158" />
  <rect
     shape-rendering="optimizeSpeed"
     x="7"
     y="42"
     width="7"
     height="7"
     fill="#000000"
     id="rect160" />
  <rect
     shape-rendering="optimizeSpeed"
     x="14"
     y="42"
     width="7"
     height="7"
     fill="#000000"
     id="rect162" />
  <rect
     shape-rendering="optimizeSpeed"
     x="21"
     y="42"
     width="7"
     height="7"
     fill="#000000"
     id="rect164" />
  <rect
     shape-rendering="optimizeSpeed"
     x="28"
     y="42"
     width="7"
     height="7"
     fill="#000000"
     id="rect166" />
  <rect
     shape-rendering="optimizeSpeed"
     x="35"
     y="42"
     width="7"
     height="7"
     fill="#000000"
     id="rect168" />
  <rect
     shape-rendering="optimizeSpeed"
     x="42"
     y="42"
     width="7"
     height="7"
     fill="#000000"
     id="rect170" />
  <rect
     shape-rendering="optimizeSpeed"
     x="56"
     y="42"
     width="7"
     height="7"
     fill="#000000"
     id="rect172" />
  <rect
     shape-rendering="optimizeSpeed"
     x="70"
     y="42"
     width="7"
     height="7"
     fill="#000000"
     id="rect174" />
  <rect
     shape-rendering="optimizeSpeed"
     x="84"
     y="42"
     width="7"
     height="7"
     fill="#000000"
     id="rect176" />
  <rect
     shape-rendering="optimizeSpeed"
     x="98"
     y="42"
     width="7"
     height="7"
     fill="#000000"
     id="rect178" />
  <rect
     shape-rendering="optimizeSpeed"
     x="112"
     y="42"
     width="7"
     height="7"
     fill="#000000"
     id="rect180" />
  <rect
     shape-rendering="optimizeSpeed"
     x="126"
     y="42"
     width="7"
     height="7"
     fill="#000000"
     id="rect182" />
  <rect
     shape-rendering="optimizeSpeed"
     x="133"
     y="42"
     width="7"
     height="7"
     fill="#000000"
     id="rect184" />
  <rect
     shape-rendering="optimizeSpeed"
     x="140"
     y="42"
     width="7"
     height="7"
     fill="#000000"
     id="rect186" />
  <rect
     shape-rendering="optimizeSpeed"
     x="147"
     y="42"
     width="7"
     height="7"
     fill="#000000"
     id="rect188" />
  <rect
     shape-rendering="optimizeSpeed"
     x="154"
     y="42"
     width="7"
     height="7"
     fill="#000000"
     id="rect190" />
  <rect
     shape-rendering="optimizeSpeed"
     x="161"
     y="42"
     width="7"
     height="7"
     fill="#000000"
     id="rect192" />
  <rect
     shape-rendering="optimizeSpeed"
     x="168"
     y="42"
     width="7"
     height="7"
     fill="#000000"
     id="rect194" />
  <rect
     shape-rendering="optimizeSpeed"
     x="77"
     y="49"
     width="7"
     height="7"
     fill="#000000"
     id="rect196" />
  <rect
     shape-rendering="optimizeSpeed"
     x="98"
     y="49"
     width="7"
     height="7"
     fill="#000000"
     id="rect198" />
  <rect
     shape-rendering="optimizeSpeed"
     x="112"
     y="49"
     width="7"
     height="7"
     fill="#000000"
     id="rect200" />
  <rect
     shape-rendering="optimizeSpeed"
     x="0"
     y="56"
     width="7"
     height="7"
     fill="#000000"
     id="rect202" />
  <rect
     shape-rendering="optimizeSpeed"
     x="7"
     y="56"
     width="7"
     height="7"
     fill="#000000"
     id="rect204" />
  <rect
     shape-rendering="optimizeSpeed"
     x="14"
     y="56"
     width="7"
     height="7"
     fill="#000000"
     id="rect206" />
  <rect
     shape-rendering="optimizeSpeed"
     x="21"
     y="56"
     width="7"
     height="7"
     fill="#000000"
     id="rect208" />
  <rect
     shape-rendering="optimizeSpeed"
     x="42"
     y="56"
     width="7"
     height="7"
     fill="#000000"
     id="rect210" />
  <rect
     shape-rendering="optimizeSpeed"
     x="56"
     y="56"
     width="7"
     height="7"
     fill="#000000"
     id="rect212" />
  <rect
     shape-rendering="optimizeSpeed"
     x="70"
     y="56"
     width="7"
     height="7"
     fill="#000000"
     id="rect214" />
  <rect
     shape-rendering="optimizeSpeed"
     x="77"
     y="56"
     width="7"
     height="7"
     fill="#000000"
     id="rect216" />
  <rect
     shape-rendering="optimizeSpeed"
     x="98"
     y="56"
     width="7"
     height="7"
     fill="#000000"
     id="rect218" />
  <rect
     shape-rendering="optimizeSpeed"
     x="112"
     y="56"
     width="7"
     height="7"
     fill="#000000"
     id="rect220" />
  <rect
     shape-rendering="optimizeSpeed"
     x="119"
     y="56"
     width="7"
     height="7"
     fill="#000000"
     id="rect222" />
  <rect
     shape-rendering="optimizeSpeed"
     x="140"
     y="56"
     width="7"
     height="7"
     fill="#000000"
     id="rect224" />
  <rect
     shape-rendering="optimizeSpeed"
     x="147"
     y="56"
     width="7"
     height="7"
     fill="#000000"
     id="rect226" />
  <rect
     shape-rendering="optimizeSpeed"
     x="154"
     y="56"
     width="7"
     height="7"
     fill="#000000"
     id="rect228" />
  <rect
     shape-rendering="optimizeSpeed"
     x="168"
     y="56"
     width="7"
     height="7"
     fill="#000000"
     id="rect230" />
  <rect
     shape-rendering="optimizeSpeed"
     x="7"
     y="63"
     width="7"
     height="7"
     fill="#000000"
     id="rect232" />
  <rect
     shape-rendering="optimizeSpeed"
     x="35"
     y="63"
     width="7"
     height="7"
     fill="#000000"
     id="rect234" />
  <rect
     shape-rendering="optimizeSpeed"
     x="77"
     y="63"
     width="7"
     height="7"
     fill="#000000"
     id="rect236" />
  <rect
     shape-rendering="optimizeSpeed"
     x="112"
     y="63"
     width="7"
     height="7"
     fill="#000000"
     id="rect238" />
  <rect
     shape-rendering="optimizeSpeed"
     x="133"
     y="63"
     width="7"
     height="7"
     fill="#000000"
     id="rect240" />
  <rect
     shape-rendering="optimizeSpeed"
     x="161"
     y="63"
     width="7"
     height="7"
     fill="#000000"
     id="rect242" />
  <rect
     shape-rendering="optimizeSpeed"
     x="0"
     y="70"
     width="7"
     height="7"
     fill="#000000"
     id="rect244" />
  <rect
     shape-rendering="optimizeSpeed"
     x="7"
     y="70"
     width="7"
     height="7"
     fill="#000000"
     id="rect246" />
  <rect
     shape-rendering="optimizeSpeed"
     x="14"
     y="70"
     width="7"
     height="7"
     fill="#000000"
     id="rect248" />
  <rect
     shape-rendering="optimizeSpeed"
     x="21"
     y="70"
     width="7"
     height="7"
     fill="#000000"
     id="rect250" />
  <rect
     shape-rendering="optimizeSpeed"
     x="28"
     y="70"
     width="7"
     height="7"
     fill="#000000"
     id="rect252" />
  <rect
     shape-rendering="optimizeSpeed"
     x="35"
     y="70"
     width="7"
     height="7"
     fill="#000000"
     id="rect254" />
  <rect
     shape-rendering="optimizeSpeed"
     x="42"
     y="70"
     width="7"
     height="7"
     fill="#000000"
     id="rect256" />
  <rect
     shape-rendering="optimizeSpeed"
     x="49"
     y="70"
     width="7"
     height="7"
     fill="#000000"
     id="rect258" />
  <rect
     shape-rendering="optimizeSpeed"
     x="63"
     y="70"
     width="7"
     height="7"
     fill="#000000"
     id="rect260" />
  <rect
     shape-rendering="optimizeSpeed"
     x="70"
     y="70"
     width="7"
     height="7"
     fill="#000000"
     id="rect262" />
  <rect
     shape-rendering="optimizeSpeed"
     x="77"
     y="70"
     width="7"
     height="7"
     fill="#000000"
     id="rect264" />
  <rect
     shape-rendering="optimizeSpeed"
     x="84"
     y="70"
     width="7"
     height="7"
     fill="#000000"
     id="rect266" />
  <rect
     shape-rendering="optimizeSpeed"
     x="98"
     y="70"
     width="7"
     height="7"
     fill="#000000"
     id="rect268" />
  <rect
     shape-rendering="optimizeSpeed"
     x="119"
     y="70"
     width="7"
     height="7"
     fill="#000000"
     id="rect270" />
  <rect
     shape-rendering="optimizeSpeed"
     x="126"
     y="70"
     width="7"
     height="7"
     fill="#000000"
     id="rect272" />
  <rect
     shape-rendering="optimizeSpeed"
     x="140"
     y="70"
     width="7"
     height="7"
     fill="#000000"
     id="rect274" />
  <rect
     shape-rendering="optimizeSpeed"
     x="7"
     y="77"
     width="7"
     height="7"
     fill="#000000"
     id="rect276" />
  <rect
     shape-rendering="optimizeSpeed"
     x="21"
     y="77"
     width="7"
     height="7"
     fill="#000000"
     id="rect278" />
  <rect
     shape-rendering="optimizeSpeed"
     x="63"
     y="77"
     width="7"
     height="7"
     fill="#000000"
     id="rect280" />
  <rect
     shape-rendering="optimizeSpeed"
     x="70"
     y="77"
     width="7"
     height="7"
     fill="#000000"
     id="rect282" />
  <rect
     shape-rendering="optimizeSpeed"
     x="84"
     y="77"
     width="7"
     height="7"
     fill="#000000"
     id="rect284" />
  <rect
     shape-rendering="optimizeSpeed"
     x="91"
     y="77"
     width="7"
     height="7"
     fill="#000000"
     id="rect286" />
  <rect
     shape-rendering="optimizeSpeed"
     x="98"
     y="77"
     width="7"
     height="7"
     fill="#000000"
     id="rect288" />
  <rect
     shape-rendering="optimizeSpeed"
     x="105"
     y="77"
     width="7"
     height="7"
     fill="#000000"
     id="rect290" />
  <rect
     shape-rendering="optimizeSpeed"
     x="119"
     y="77"
     width="7"
     height="7"
     fill="#000000"
     id="rect292" />
  <rect
     shape-rendering="optimizeSpeed"
     x="140"
     y="77"
     width="7"
     height="7"
     fill="#000000"
     id="rect294" />
  <rect
     shape-rendering="optimizeSpeed"
     x="147"
     y="77"
     width="7"
     height="7"
     fill="#000000"
     id="rect296" />
  <rect
     shape-rendering="optimizeSpeed"
     x="154"
     y="77"
     width="7"
     height="7"
     fill="#000000"
     id="rect298" />
  <rect
     shape-rendering="optimizeSpeed"
     x="14"
     y="84"
     width="7"
     height="7"
     fill="#000000"
     id="rect300" />
  <rect
     shape-rendering="optimizeSpeed"
     x="42"
     y="84"
     width="7"
     height="7"
     fill="#000000"
     id="rect302" />
  <rect
     shape-rendering="optimizeSpeed"
     x="63"
     y="84"
     width="7"
     height="7"
     fill="#000000"
     id="rect304" />
  <rect
     shape-rendering="optimizeSpeed"
     x="70"
     y="84"
     width="7"
     height="7"
     fill="#000000"
     id="rect306" />
  <rect
     shape-rendering="optimizeSpeed"
     x="77"
     y="84"
     width="7"
     height="7"
     fill="#000000"
     id="rect308" />
  <rect
     shape-rendering="optimizeSpeed"
     x="84"
     y="84"
     width="7"
     height="7"
     fill="#000000"
     id="rect310" />
  <rect
     shape-rendering="optimizeSpeed"
     x="91"
     y="84"
     width="7"
     height="7"
     fill="#000000"
     id="rect312" />
  <rect
     shape-rendering="optimizeSpeed"
     x="98"
     y="84"
     width="7"
     height="7"
     fill="#000000"
     id="rect314" />
  <rect
     shape-rendering="optimizeSpeed"
     x="119"
     y="84"
     width="7"
     height="7"
     fill="#000000"
     id="rect316" />
  <rect
     shape-rendering="optimizeSpeed"
     x="126"
     y="84"
     width="7"
     height="7"
     fill="#000000"
     id="rect318" />
  <rect
     shape-rendering="optimizeSpeed"
     x="140"
     y="84"
     width="7"
     height="7"
     fill="#000000"
     id="rect320" />
  <rect
     shape-rendering="optimizeSpeed"
     x="154"
     y="84"
     width="7"
     height="7"
     fill="#000000"
     id="rect322" />
  <rect
     shape-rendering="optimizeSpeed"
     x="161"
     y="84"
     width="7"
     height="7"
     fill="#000000"
     id="rect324" />
  <rect
     shape-rendering="optimizeSpeed"
     x="168"
     y="84"
     width="7"
     height="7"
     fill="#000000"
     id="rect326" />
  <rect
     shape-rendering="optimizeSpeed"
     x="28"
     y="91"
     width="7"
     height="7"
     fill="#000000"
     id="rect328" />
  <rect
     shape-rendering="optimizeSpeed"
     x="35"
     y="91"
     width="7"
     height="7"
     fill="#000000"
     id="rect330" />
  <rect
     shape-rendering="optimizeSpeed"
     x="56"
     y="91"
     width="7"
     height="7"
     fill="#000000"
     id="rect332" />
  <rect
     shape-rendering="optimizeSpeed"
     x="84"
     y="91"
     width="7"
     height="7"
     fill="#000000"
     id="rect334" />
  <rect
     shape-rendering="optimizeSpeed"
     x="105"
     y="91"
     width="7"
     height="7"
     fill="#000000"
     id="rect336" />
  <rect
     shape-rendering="optimizeSpeed"
     x="119"
     y="91"
     width="7"
     height="7"
     fill="#000000"
     id="rect338" />
  <rect
     shape-rendering="optimizeSpeed"
     x="126"
     y="91"
     width="7"
     height="7"
     fill="#000000"
     id="rect340" />
  <rect
     shape-rendering="optimizeSpeed"
     x="133"
     y="91"
     width="7"
     height="7"
     fill="#000000"
     id="rect342" />
  <rect
     shape-rendering="optimizeSpeed"
     x="140"
     y="91"
     width="7"
     height="7"
     fill="#000000"
     id="rect344" />
  <rect
     shape-rendering="optimizeSpeed"
     x="168"
     y="91"
     width="7"
     height="7"
     fill="#000000"
     id="rect346" />
  <rect
     shape-rendering="optimizeSpeed"
     x="7"
     y="98"
     width="7"
     height="7"
     fill="#000000"
     id="rect348" />
  <rect
     shape-rendering="optimizeSpeed"
     x="21"
     y="98"
     width="7"
     height="7"
     fill="#000000"
     id="rect350" />
  <rect
     shape-rendering="optimizeSpeed"
     x="42"
     y="98"
     width="7"
     height="7"
     fill="#000000"
     id="rect352" />
  <rect
     shape-rendering="optimizeSpeed"
     x="56"
     y="98"
     width="7"
     height="7"
     fill="#000000"
     id="rect354" />
  <rect
     shape-rendering="optimizeSpeed"
     x="70"
     y="98"
     width="7"
     height="7"
     fill="#000000"
     id="rect356" />
  <rect
     shape-rendering="optimizeSpeed"
     x="91"
     y="98"
     width="7"
     height="7"
     fill="#000000"
     id="rect358" />
  <rect
     shape-rendering="optimizeSpeed"
     x="98"
     y="98"
     width="7"
     height="7"
     fill="#000000"
     id="rect360" />
  <rect
     shape-rendering="optimizeSpeed"
     x="112"
     y="98"
     width="7"
     height="7"
     fill="#000000"
     id="rect362" />
  <rect
     shape-rendering="optimizeSpeed"
     x="119"
     y="98"
     width="7"
     height="7"
     fill="#000000"
     id="rect364" />
  <rect
     shape-rendering="optimizeSpeed"
     x="126"
     y="98"
     width="7"
     height="7"
     fill="#000000"
     id="rect366" />
  <rect
     shape-rendering="optimizeSpeed"
     x="140"
     y="98"
     width="7"
     height="7"
     fill="#000000"
     id="rect368" />
  <rect
     shape-rendering="optimizeSpeed"
     x="154"
     y="98"
     width="7"
     height="7"
     fill="#000000"
     id="rect370" />
  <rect
     shape-rendering="optimizeSpeed"
     x="161"
     y="98"
     width="7"
     height="7"
     fill="#000000"
     id="rect372" />
  <rect
     shape-rendering="optimizeSpeed"
     x="0"
     y="105"
     width="7"
     height="7"
     fill="#000000"
     id="rect374" />
  <rect
     shape-rendering="optimizeSpeed"
     x="14"
     y="105"
     width="7"
     height="7"
     fill="#000000"
     id="rect376" />
  <rect
     shape-rendering="optimizeSpeed"
     x="21"
     y="105"
     width="7"
     height="7"
     fill="#000000"
     id="rect378" />
  <rect
     shape-rendering="optimizeSpeed"
     x="28"
     y="105"
     width="7"
     height="7"
     fill="#000000"
     id="rect380" />
  <rect
     shape-rendering="optimizeSpeed"
     x="49"
     y="105"
     width="7"
     height="7"
     fill="#000000"
     id="rect382" />
  <rect
     shape-rendering="optimizeSpeed"
     x="56"
     y="105"
     width="7"
     height="7"
     fill="#000000"
     id="rect384" />
  <rect
     shape-rendering="optimizeSpeed"
     x="70"
     y="105"
     width="7"
     height="7"
     fill="#000000"
     id="rect386" />
  <rect
     shape-rendering="optimizeSpeed"
     x="77"
     y="105"
     width="7"
     height="7"
     fill="#000000"
     id="rect388" />
  <rect
     shape-rendering="optimizeSpeed"
     x="133"
     y="105"
     width="7"
     height="7"
     fill="#000000"
     id="rect390" />
  <rect
     shape-rendering="optimizeSpeed"
     x="140"
     y="105"
     width="7"
     height="7"
     fill="#000000"
     id="rect392" />
  <rect
     shape-rendering="optimizeSpeed"
     x="168"
     y="105"
     width="7"
     height="7"
     fill="#000000"
     id="rect394" />
  <rect
     shape-rendering="optimizeSpeed"
     x="28"
     y="112"
     width="7"
     height="7"
     fill="#000000"
     id="rect396" />
  <rect
     shape-rendering="optimizeSpeed"
     x="42"
     y="112"
     width="7"
     height="7"
     fill="#000000"
     id="rect398" />
  <rect
     shape-rendering="optimizeSpeed"
     x="49"
     y="112"
     width="7"
     height="7"
     fill="#000000"
     id="rect400" />
  <rect
     shape-rendering="optimizeSpeed"
     x="91"
     y="112"
     width="7"
     height="7"
     fill="#000000"
     id="rect402" />
  <rect
     shape-rendering="optimizeSpeed"
     x="112"
     y="112"
     width="7"
     height="7"
     fill="#000000"
     id="rect404" />
  <rect
     shape-rendering="optimizeSpeed"
     x="119"
     y="112"
     width="7"
     height="7"
     fill="#000000"
     id="rect406" />
  <rect
     shape-rendering="optimizeSpeed"
     x="126"
     y="112"
     width="7"
     height="7"
     fill="#000000"
     id="rect408" />
  <rect
     shape-rendering="optimizeSpeed"
     x="133"
     y="112"
     width="7"
     height="7"
     fill="#000000"
     id="rect410" />
  <rect
     shape-rendering="optimizeSpeed"
     x="140"
     y="112"
     width="7"
     height="7"
     fill="#000000"
     id="rect412" />
  <rect
     shape-rendering="optimizeSpeed"
     x="147"
     y="112"
     width="7"
     height="7"
     fill="#000000"
     id="rect414" />
  <rect
     shape-rendering="optimizeSpeed"
     x="154"
     y="112"
     width="7"
     height="7"
     fill="#000000"
     id="rect416" />
  <rect
     shape-rendering="optimizeSpeed"
     x="161"
     y="112"
     width="7"
     height="7"
     fill="#000000"
     id="rect418" />
  <rect
     shape-rendering="optimizeSpeed"
     x="168"
     y="112"
     width="7"
     height="7"
     fill="#000000"
     id="rect420" />
  <rect
     shape-rendering="optimizeSpeed"
     x="56"
     y="119"
     width="7"
     height="7"
     fill="#000000"
     id="rect422" />
  <rect
     shape-rendering="optimizeSpeed"
     x="63"
     y="119"
     width="7"
     height="7"
     fill="#000000"
     id="rect424" />
  <rect
     shape-rendering="optimizeSpeed"
     x="70"
     y="119"
     width="7"
     height="7"
     fill="#000000"
     id="rect426" />
  <rect
     shape-rendering="optimizeSpeed"
     x="77"
     y="119"
     width="7"
     height="7"
     fill="#000000"
     id="rect428" />
  <rect
     shape-rendering="optimizeSpeed"
     x="91"
     y="119"
     width="7"
     height="7"
     fill="#000000"
     id="rect430" />
  <rect
     shape-rendering="optimizeSpeed"
     x="98"
     y="119"
     width="7"
     height="7"
     fill="#000000"
     id="rect432" />
  <rect
     shape-rendering="optimizeSpeed"
     x="105"
     y="119"
     width="7"
     height="7"
     fill="#000000"
     id="rect434" />
  <rect
     shape-rendering="optimizeSpeed"
     x="112"
     y="119"
     width="7"
     height="7"
     fill="#000000"
     id="rect436" />
  <rect
     shape-rendering="optimizeSpeed"
     x="140"
     y="119"
     width="7"
     height="7"
     fill="#000000"
     id="rect438" />
  <rect
     shape-rendering="optimizeSpeed"
     x="154"
     y="119"
     width="7"
     height="7"
     fill="#000000"
     id="rect440" />
  <rect
     shape-rendering="optimizeSpeed"
     x="168"
     y="119"
     width="7"
     height="7"
     fill="#000000"
     id="rect442" />
  <rect
     shape-rendering="optimizeSpeed"
     x="0"
     y="126"
     width="7"
     height="7"
     fill="#000000"
     id="rect444" />
  <rect
     shape-rendering="optimizeSpeed"
     x="7"
     y="126"
     width="7"
     height="7"
     fill="#000000"
     id="rect446" />
  <rect
     shape-rendering="optimizeSpeed"
     x="14"
     y="126"
     width="7"
     height="7"
     fill="#000000"
     id="rect448" />
  <rect
     shape-rendering="optimizeSpeed"
     x="21"
     y="126"
     width="7"
     height="7"
     fill="#000000"
     id="rect450" />
  <rect
     shape-rendering="optimizeSpeed"
     x="28"
     y="126"
     width="7"
     height="7"
     fill="#000000"
     id="rect452" />
  <rect
     shape-rendering="optimizeSpeed"
     x="35"
     y="126"
     width="7"
     height="7"
     fill="#000000"
     id="rect454" />
  <rect
     shape-rendering="optimizeSpeed"
     x="42"
     y="126"
     width="7"
     height="7"
     fill="#000000"
     id="rect456" />
  <rect
     shape-rendering="optimizeSpeed"
     x="63"
     y="126"
     width="7"
     height="7"
     fill="#000000"
     id="rect458" />
  <rect
     shape-rendering="optimizeSpeed"
     x="70"
     y="126"
     width="7"
     height="7"
     fill="#000000"
     id="rect460" />
  <rect
     shape-rendering="optimizeSpeed"
     x="91"
     y="126"
     width="7"
     height="7"
     fill="#000000"
     id="rect462" />
  <rect
     shape-rendering="optimizeSpeed"
     x="112"
     y="126"
     width="7"
     height="7"
     fill="#000000"
     id="rect464" />
  <rect
     shape-rendering="optimizeSpeed"
     x="126"
     y="126"
     width="7"
     height="7"
     fill="#000000"
     id="rect466" />
  <rect
     shape-rendering="optimizeSpeed"
     x="140"
     y="126"
     width="7"
     height="7"
     fill="#000000"
     id="rect468" />
  <rect
     shape-rendering="optimizeSpeed"
     x="154"
     y="126"
     width="7"
     height="7"
     fill="#000000"
     id="rect470" />
  <rect
     shape-rendering="optimizeSpeed"
     x="161"
     y="126"
     width="7"
     height="7"
     fill="#000000"
     id="rect472" />
  <rect
     shape-rendering="optimizeSpeed"
     x="168"
     y="126"
     width="7"
     height="7"
     fill="#000000"
     id="rect474" />
  <rect
     shape-rendering="optimizeSpeed"
     x="0"
     y="133"
     width="7"
     height="7"
     fill="#000000"
     id="rect476" />
  <rect
     shape-rendering="optimizeSpeed"
     x="42"
     y="133"
     width="7"
     height="7"
     fill="#000000"
     id="rect478" />
  <rect
     shape-rendering="optimizeSpeed"
     x="70"
     y="133"
     width="7"
     height="7"
     fill="#000000"
     id="rect480" />
  <rect
     shape-rendering="optimizeSpeed"
     x="98"
     y="133"
     width="7"
     height="7"
     fill="#000000"
     id="rect482" />
  <rect
     shape-rendering="optimizeSpeed"
     x="105"
     y="133"
     width="7"
     height="7"
     fill="#000000"
     id="rect484" />
  <rect
     shape-rendering="optimizeSpeed"
     x="112"
     y="133"
     width="7"
     height="7"
     fill="#000000"
     id="rect486" />
  <rect
     shape-rendering="optimizeSpeed"
     x="140"
     y="133"
     width="7"
     height="7"
     fill="#000000"
     id="rect488" />
  <rect
     shape-rendering="optimizeSpeed"
     x="168"
     y="133"
     width="7"
     height="7"
     fill="#000000"
     id="rect490" />
  <rect
     shape-rendering="optimizeSpeed"
     x="0"
     y="140"
     width="7"
     height="7"
     fill="#000000"
     id="rect492" />
  <rect
     shape-rendering="optimizeSpeed"
     x="14"
     y="140"
     width="7"
     height="7"
     fill="#000000"
     id="rect494" />
  <rect
     shape-rendering="optimizeSpeed"
     x="21"
     y="140"
     width="7"
     height="7"
     fill="#000000"
     id="rect496" />
  <rect
     shape-rendering="optimizeSpeed"
     x="28"
     y="140"
     width="7"
     height="7"
     fill="#000000"
     id="rect498" />
  <rect
     shape-rendering="optimizeSpeed"
     x="42"
     y="140"
     width="7"
     height="7"
     fill="#000000"
     id="rect500" />
  <rect
     shape-rendering="optimizeSpeed"
     x="77"
     y="140"
     width="7"
     height="7"
     fill="#000000"
     id="rect502" />
  <rect
     shape-rendering="optimizeSpeed"
     x="98"
     y="140"
     width="7"
     height="7"
     fill="#000000"
     id="rect504" />
  <rect
     shape-rendering="optimizeSpeed"
     x="112"
     y="140"
     width="7"
     height="7"
     fill="#000000"
     id="rect506" />
  <rect
     shape-rendering="optimizeSpeed"
     x="119"
     y="140"
     width="7"
     height="7"
     fill="#000000"
     id="rect508" />
  <rect
     shape-rendering="optimizeSpeed"
     x="126"
     y="140"
     width="7"
     height="7"
     fill="#000000"
     id="rect510" />
  <rect
     shape-rendering="optimizeSpeed"
     x="133"
     y="140"
     width="7"
     height="7"
     fill="#000000"
     id="rect512" />
  <rect
     shape-rendering="optimizeSpeed"
     x="140"
     y="140"
     width="7"
     height="7"
     fill="#000000"
     id="rect514" />
  <rect
     shape-rendering="optimizeSpeed"
     x="147"
     y="140"
     width="7"
     height="7"
     fill="#000000"
     id="rect516" />
  <rect
     shape-rendering="optimizeSpeed"
     x="161"
     y="140"
     width="7"
     height="7"
     fill="#000000"
     id="rect518" />
  <rect
     shape-rendering="optimizeSpeed"
     x="168"
     y="140"
     width="7"
     height="7"
     fill="#000000"
     id="rect520" />
  <rect
     shape-rendering="optimizeSpeed"
     x="0"
     y="147"
     width="7"
     height="7"
     fill="#000000"
     id="rect522" />
  <rect
     shape-rendering="optimizeSpeed"
     x="14"
     y="147"
     width="7"
     height="7"
     fill="#000000"
     id="rect524" />
  <rect
     shape-rendering="optimizeSpeed"
     x="21"
     y="147"
     width="7"
     height="7"
     fill="#000000"
     id="rect526" />
  <rect
     shape-rendering="optimizeSpeed"
     x="28"
     y="147"
     width="7"
     height="7"
     fill="#000000"
     id="rect528" />
  <rect
     shape-rendering="optimizeSpeed"
     x="42"
     y="147"
     width="7"
     height="7"
     fill="#000000"
     id="rect530" />
  <rect
     shape-rendering="optimizeSpeed"
     x="56"
     y="147"
     width="7"
     height="7"
     fill="#000000"
     id="rect532" />
  <rect
     shape-rendering="optimizeSpeed"
     x="70"
     y="147"
     width="7"
     height="7"
     fill="#000000"
     id="rect534" />
  <rect
     shape-rendering="optimizeSpeed"
     x="77"
     y="147"
     width="7"
     height="7"
     fill="#000000"
     id="rect536" />
  <rect
     shape-rendering="optimizeSpeed"
     x="91"
     y="147"
     width="7"
     height="7"
     fill="#000000"
     id="rect538" />
  <rect
     shape-rendering="optimizeSpeed"
     x="105"
     y="147"
     width="7"
     height="7"
     fill="#000000"
     id="rect540" />
  <rect
     shape-rendering="optimizeSpeed"
     x="119"
     y="147"
     width="7"
     height="7"
     fill="#000000"
     id="rect542" />
  <rect
     shape-rendering="optimizeSpeed"
     x="126"
     y="147"
     width="7"
     height="7"
     fill="#000000"
     id="rect544" />
  <rect
     shape-rendering="optimizeSpeed"
     x="140"
     y="147"
     width="7"
     height="7"
     fill="#000000"
     id="rect546" />
  <rect
     shape-rendering="optimizeSpeed"
     x="147"
     y="147"
     width="7"
     height="7"
     fill="#000000"
     id="rect548" />
  <rect
     shape-rendering="optimizeSpeed"
     x="154"
     y="147"
     width="7"
     height="7"
     fill="#000000"
     id="rect550" />
  <rect
     shape-rendering="optimizeSpeed"
     x="161"
     y="147"
     width="7"
     height="7"
     fill="#000000"
     id="rect552" />
  <rect
     shape-rendering="optimizeSpeed"
     x="168"
     y="147"
     width="7"
     height="7"
     fill="#000000"
     id="rect554" />
  <rect
     shape-rendering="optimizeSpeed"
     x="0"
     y="154"
     width="7"
     height="7"
     fill="#000000"
     id="rect556" />
  <rect
     shape-rendering="optimizeSpeed"
     x="14"
     y="154"
     width="7"
     height="7"
     fill="#000000"
     id="rect558" />
  <rect
     shape-rendering="optimizeSpeed"
     x="21"
     y="154"
     width="7"
     height="7"
     fill="#000000"
     id="rect560" />
  <rect
     shape-rendering="optimizeSpeed"
     x="28"
     y="154"
     width="7"
     height="7"
     fill="#000000"
     id="rect562" />
  <rect
     shape-rendering="optimizeSpeed"
     x="42"
     y="154"
     width="7"
     height="7"
     fill="#000000"
     id="rect564" />
  <rect
     shape-rendering="optimizeSpeed"
     x="56"
     y="154"
     width="7"
     height="7"
     fill="#000000"
     id="rect566" />
  <rect
     shape-rendering="optimizeSpeed"
     x="77"
     y="154"
     width="7"
     height="7"
     fill="#000000"
     id="rect568" />
  <rect
     shape-rendering="optimizeSpeed"
     x="84"
     y="154"
     width="7"
     height="7"
     fill="#000000"
     id="rect570" />
  <rect
     shape-rendering="optimizeSpeed"
     x="98"
     y="154"
     width="7"
     height="7"
     fill="#000000"
     id="rect572" />
  <rect
     shape-rendering="optimizeSpeed"
     x="105"
     y="154"
     width="7"
     height="7"
     fill="#000000"
     id="rect574" />
  <rect
     shape-rendering="optimizeSpeed"
     x="119"
     y="154"
     width="7"
     height="7"
     fill="#000000"
     id="rect576" />
  <rect
     shape-rendering="optimizeSpeed"
     x="126"
     y="154"
     width="7"
     height="7"
     fill="#000000"
     id="rect578" />
  <rect
     shape-rendering="optimizeSpeed"
     x="140"
     y="154"
     width="7"
     height="7"
     fill="#000000"
     id="rect580" />
  <rect
     shape-rendering="optimizeSpeed"
     x="154"
     y="154"
     width="7"
     height="7"
     fill="#000000"
     id="rect582" />
  <rect
     shape-rendering="optimizeSpeed"
     x="161"
     y="154"
     width="7"
     height="7"
     fill="#000000"
     id="rect584" />
  <rect
     shape-rendering="optimizeSpeed"
     x="0"
     y="161"
     width="7"
     height="7"
     fill="#000000"
     id="rect586" />
  <rect
     shape-rendering="optimizeSpeed"
     x="42"
     y="161"
     width="7"
     height="7"
     fill="#000000"
     id="rect588" />
  <rect
     shape-rendering="optimizeSpeed"
     x="56"
     y="161"
     width="7"
     height="7"
     fill="#000000"
     id="rect590" />
  <rect
     shape-rendering="optimizeSpeed"
     x="70"
     y="161"
     width="7"
     height="7"
     fill="#000000"
     id="rect592" />
  <rect
     shape-rendering="optimizeSpeed"
     x="77"
     y="161"
     width="7"
     height="7"
     fill="#000000"
     id="rect594" />
  <rect
     shape-rendering="optimizeSpeed"
     x="91"
     y="161"
     width="7"
     height="7"
     fill="#000000"
     id="rect596" />
  <rect
     shape-rendering="optimizeSpeed"
     x="98"
     y="161"
     width="7"
     height="7"
     fill="#000000"
     id="rect598" />
  <rect
     shape-rendering="optimizeSpeed"
     x="105"
     y="161"
     width="7"
     height="7"
     fill="#000000"
     id="rect600" />
  <rect
     shape-rendering="optimizeSpeed"
     x="126"
     y="161"
     width="7"
     height="7"
     fill="#000000"
     id="rect602" />
  <rect
     shape-rendering="optimizeSpeed"
     x="140"
     y="161"
     width="7"
     height="7"
     fill="#000000"
     id="rect604" />
  <rect
     shape-rendering="optimizeSpeed"
     x="154"
     y="161"
     width="7"
     height="7"
     fill="#000000"
     id="rect606" />
  <rect
     shape-rendering="optimizeSpeed"
     x="0"
     y="168"
     width="7"
     height="7"
     fill="#000000"
     id="rect608" />
  <rect
     shape-rendering="optimizeSpeed"
     x="7"
     y="168"
     width="7"
     height="7"
     fill="#000000"
     id="rect610" />
  <rect
     shape-rendering="optimizeSpeed"
     x="14"
     y="168"
     width="7"
     height="7"
     fill="#000000"
     id="rect612" />
  <rect
     shape-rendering="optimizeSpeed"
     x="21"
     y="168"
     width="7"
     height="7"
     fill="#000000"
     id="rect614" />
  <rect
     shape-rendering="optimizeSpeed"
     x="28"
     y="168"
     width="7"
     height="7"
     fill="#000000"
     id="rect616" />
  <rect
     shape-rendering="optimizeSpeed"
     x="35"
     y="168"
     width="7"
     height="7"
     fill="#000000"
     id="rect618" />
  <rect
     shape-rendering="optimizeSpeed"
     x="42"
     y="168"
     width="7"
     height="7"
     fill="#000000"
     id="rect620" />
  <rect
     shape-rendering="optimizeSpeed"
     x="56"
     y="168"
     width="7"
     height="7"
     fill="#000000"
     id="rect622" />
  <rect
     shape-rendering="optimizeSpeed"
     x="63"
     y="168"
     width="7"
     height="7"
     fill="#000000"
     id="rect624" />
  <rect
     shape-rendering="optimizeSpeed"
     x="70"
     y="168"
     width="7"
     height="7"
     fill="#000000"
     id="rect626" />
  <rect
     shape-rendering="optimizeSpeed"
     x="84"
     y="168"
     width="7"
     height="7"
     fill="#000000"
     id="rect628" />
  <rect
     shape-rendering="optimizeSpeed"
     x="91"
     y="168"
     width="7"
     height="7"
     fill="#000000"
     id="rect630" />
  <rect
     shape-rendering="optimizeSpeed"
     x="98"
     y="168"
     width="7"
     height="7"
     fill="#000000"
     id="rect632" />
  <rect
     shape-rendering="optimizeSpeed"
     x="119"
     y="168"
     width="7"
     height="7"
     fill="#000000"
     id="rect634" />
  <rect
     shape-rendering="optimizeSpeed"
     x="133"
     y="168"
     width="7"
     height="7"
     fill="#000000"
     id="rect636" />
  <rect
     shape-rendering="optimizeSpeed"
     x="140"
     y="168"
     width="7"
     height="7"
     fill="#000000"
     id="rect638" />
  <rect
     shape-rendering="optimizeSpeed"
     x="147"
     y="168"
     width="7"
     height="7"
     fill="#000000"
     id="rect640" />
  <rect
     shape-rendering="optimizeSpeed"
     x="154"
     y="168"
     width="7"
     height="7"
     fill="#000000"
     id="rect642" />
  <rect
     shape-rendering="optimizeSpeed"
     x="161"
     y="168"
     width="7"
     height="7"
     fill="#000000"
     id="rect644" />
  <rect
     shape-rendering="optimizeSpeed"
     x="168"
     y="168"
     width="7"
     height="7"
     fill="#000000"
     id="rect646" />
</svg>
